<svg width="1728" height="665" viewBox="0 0 1728 665" fill="none" xmlns="http://www.w3.org/2000/svg">
<path opacity="0.5" d="M2198.15 664C2198.15 664 2064.4 584.614 1946.15 584.614C1827.9 584.614 1757.68 664 1563.47 664C1369.25 664 1254.3 577.706 1081.11 577.706C907.922 577.706 881.27 664 740.234 664C599.199 664 501.038 587.838 357.352 587.838C213.665 587.838 116.793 651.38 -2.7429 651.38C-122.279 651.38 -280.877 595.502 -280.877 595.502" stroke="#E0F1F8" stroke-width="0.705551" stroke-miterlimit="10" stroke-linecap="square"/>
<path opacity="0.493827" d="M2198.15 656.745C2198.15 656.745 2064.74 578.084 1946.15 578.084C1827.55 578.084 1757.9 655.779 1563.61 655.779C1369.32 655.779 1254 574.714 1080.79 574.714C907.576 574.714 881.395 656.493 740.26 656.493C599.125 656.493 500.964 584.583 357.278 584.352C213.592 584.121 116.793 644.198 -2.7429 644.198C-122.279 644.198 -280.877 588.835 -280.877 588.835" stroke="#E0F1F8" stroke-width="0.705551" stroke-miterlimit="10" stroke-linecap="square"/>
<path opacity="0.487654" d="M2198.15 649.49C2198.15 649.49 2065.04 571.553 1946.15 571.553C1827.26 571.553 1758.3 647.611 1563.79 647.611C1369.27 647.611 1253.68 571.774 1080.49 571.774C907.303 571.774 881.518 649.017 740.284 649.017C599.05 649.017 500.865 581.36 357.179 580.898C213.493 580.436 116.917 637.111 -2.7429 637.111C-122.403 637.111 -280.877 582.2 -280.877 582.2" stroke="#E0F1F8" stroke-width="0.705551" stroke-miterlimit="10" stroke-linecap="square"/>
<path opacity="0.481481" d="M2198.15 642.235C2198.15 642.235 2065.34 565.023 1946.15 565.023C1826.96 565.023 1758.62 639.411 1563.94 639.411C1369.25 639.411 1253.35 568.802 1080.19 568.802C907.03 568.802 881.643 641.531 740.309 641.531C598.976 641.531 500.791 578.126 357.105 577.485C213.419 576.845 116.843 629.982 -2.7429 629.982C-122.329 629.982 -280.877 575.627 -280.877 575.627" stroke="#E0F1F8" stroke-width="0.705551" stroke-miterlimit="10" stroke-linecap="square"/>
<path opacity="0.475309" d="M2198.15 634.99C2198.15 634.99 2065.64 558.492 1946.15 558.492C1826.66 558.492 1758.94 631.211 1564.11 631.211C1369.27 631.211 1253.03 565.842 1079.87 565.842C906.709 565.842 881.716 634.035 740.334 634.035C598.951 634.035 500.716 574.892 357.03 573.968C213.344 573.044 116.769 622.832 -2.7429 622.832C-122.254 622.832 -280.877 568.981 -280.877 568.981" stroke="#E0F1F8" stroke-width="0.705551" stroke-miterlimit="10" stroke-linecap="square"/>
<path opacity="0.469136" d="M2198.15 627.735C2198.15 627.735 2065.91 551.961 1946.15 551.961C1826.39 551.961 1759.27 623.011 1564.26 623.011C1369.25 623.011 1252.71 562.87 1079.57 562.87C906.436 562.87 881.89 626.549 740.359 626.549C598.828 626.549 500.642 571.648 356.931 570.493C213.22 569.338 116.793 615.693 -2.7429 615.693C-122.279 615.693 -280.877 562.356 -280.877 562.356" stroke="#E0F1F8" stroke-width="0.705551" stroke-miterlimit="10" stroke-linecap="square"/>
<path opacity="0.462963" d="M2198.15 620.48C2198.15 620.48 2066.21 545.452 1946.17 545.452C1826.14 545.452 1759.61 614.832 1564.46 614.832C1369.3 614.832 1252.36 559.931 1079.3 559.931C906.238 559.931 882.064 619.084 740.408 619.084C598.753 619.084 500.567 568.435 356.881 567.049C213.195 565.663 116.819 608.574 -2.71771 608.574C-122.254 608.574 -280.851 555.752 -280.851 555.752" stroke="#E0F1F8" stroke-width="0.705551" stroke-miterlimit="10" stroke-linecap="square"/>
<path opacity="0.45679" d="M2198.15 613.225C2198.15 613.225 2066.5 538.9 1946.15 538.9C1825.8 538.9 1759.91 606.621 1564.58 606.621C1369.25 606.621 1252.09 556.938 1078.95 556.938C905.817 556.938 882.163 611.535 740.409 611.535C598.654 611.535 500.468 565.148 356.782 563.521C213.096 561.894 116.793 601.382 -2.7429 601.382C-122.279 601.382 -280.877 549.063 -280.877 549.063" stroke="#E0F1F8" stroke-width="0.705551" stroke-miterlimit="10" stroke-linecap="square"/>
<path opacity="0.450617" d="M2198.15 605.97C2198.15 605.97 2066.87 532.37 1946.15 532.37C1825.42 532.37 1760.21 598.421 1564.7 598.421C1369.2 598.421 1251.74 553.977 1078.63 553.977C905.52 553.977 882.262 604.08 740.409 604.08C598.555 604.08 500.369 561.946 356.683 560.088C212.997 558.23 116.769 594.274 -2.76709 594.274C-122.303 594.274 -280.901 542.47 -280.901 542.47" stroke="#E0F1F8" stroke-width="0.705551" stroke-miterlimit="10" stroke-linecap="square"/>
<path opacity="0.444444" d="M2198.15 598.715C2198.15 598.715 2067.07 525.849 1946.15 525.849C1825.23 525.849 1760.53 590.221 1564.9 590.221C1369.27 590.221 1251.45 551.006 1078.36 551.006C905.272 551.006 882.41 596.584 740.458 596.584C598.506 596.584 500.197 558.702 356.535 556.623C212.874 554.544 116.719 587.134 -2.81689 587.134C-122.353 587.134 -280.951 535.845 -280.951 535.845" stroke="#E0F1F8" stroke-width="0.705551" stroke-miterlimit="10" stroke-linecap="square"/>
<path opacity="0.438272" d="M2198.15 591.46C2198.15 591.46 2067.37 519.319 1946.15 519.319C1824.93 519.319 1760.85 582.021 1565.05 582.021C1369.25 582.021 1251.15 548.045 1078.04 548.045C904.925 548.045 882.534 589.098 740.482 589.098C598.431 589.098 500.221 555.5 356.559 553.148C212.898 550.796 116.819 579.995 -2.71771 579.995C-122.254 579.995 -280.851 529.209 -280.851 529.209" stroke="#E0F1F8" stroke-width="0.705551" stroke-miterlimit="10" stroke-linecap="square"/>
<path opacity="0.432099" d="M2198.15 584.216C2198.15 584.216 2067.67 512.82 1946.15 512.82C1824.63 512.82 1761.17 573.8 1565.22 573.8C1369.27 573.8 1250.83 545.043 1077.74 545.043C904.653 545.043 882.658 581.58 740.508 581.58C598.357 581.58 500.246 552.182 356.46 549.652C212.675 547.121 116.793 572.824 -2.69331 572.824C-122.18 572.824 -280.827 522.553 -280.827 522.553" stroke="#E0F1F8" stroke-width="0.705551" stroke-miterlimit="10" stroke-linecap="square"/>
<path opacity="0.425926" d="M2198.15 576.95C2198.15 576.95 2067.94 506.247 1946.15 506.247C1824.36 506.247 1761.49 565.621 1565.37 565.621C1369.25 565.621 1250.5 542.103 1077.42 542.103C904.33 542.103 882.756 574.105 740.556 574.105C598.356 574.105 500.098 548.98 356.387 546.197C212.676 543.415 116.819 565.716 -2.76709 565.716C-122.353 565.716 -280.901 515.949 -280.901 515.949" stroke="#E0F1F8" stroke-width="0.705551" stroke-miterlimit="10" stroke-linecap="square"/>
<path opacity="0.419753" d="M2198.15 569.705C2198.15 569.705 2068.24 499.727 1946.15 499.727C1824.06 499.727 1761.79 557.473 1565.52 557.473C1369.25 557.473 1250.16 539.152 1077.12 539.152C904.083 539.152 882.905 566.64 740.556 566.64C598.207 566.64 499.974 545.767 356.287 542.754C212.601 539.74 116.793 558.597 -2.7429 558.597C-122.279 558.597 -280.877 509.334 -280.877 509.334" stroke="#E0F1F8" stroke-width="0.705551" stroke-miterlimit="10" stroke-linecap="square"/>
<path opacity="0.41358" d="M2198.15 562.45C2198.15 562.45 2068.53 493.154 1946.15 493.154C1823.76 493.154 1762.11 549.19 1565.69 549.19C1369.27 549.19 1249.89 536.139 1076.82 536.139C903.761 536.139 883.054 559.09 740.582 559.09C598.109 559.09 499.899 542.48 356.212 539.236C212.526 535.992 116.793 551.405 -2.7429 551.405C-122.279 551.405 -280.877 502.656 -280.877 502.656" stroke="#E0F1F8" stroke-width="0.705551" stroke-miterlimit="10" stroke-linecap="square"/>
<path opacity="0.407407" d="M2198.15 555.195C2198.15 555.195 2068.83 486.655 1946.17 486.655C1823.52 486.655 1762.46 541.032 1565.87 541.032C1369.27 541.032 1249.59 533.199 1076.53 533.199C903.464 533.199 883.203 551.636 740.631 551.636C598.059 551.636 499.849 539.268 356.163 535.792C212.476 532.317 116.819 544.297 -2.71771 544.297C-122.254 544.297 -280.851 496 -280.851 496" stroke="#E0F1F8" stroke-width="0.705551" stroke-miterlimit="10" stroke-linecap="square"/>
<path opacity="0.401235" d="M2198.15 547.94C2198.15 547.94 2069.1 480.135 1946.15 480.135C1823.2 480.135 1762.86 532.842 1566.02 532.842C1369.17 532.842 1249.24 530.249 1076.2 530.249C903.167 530.249 883.302 544.16 740.631 544.16C597.961 544.16 499.652 536.002 355.99 532.338C212.329 528.674 116.744 537.168 -2.79227 537.168C-122.329 537.168 -280.926 489.438 -280.926 489.438" stroke="#E0F1F8" stroke-width="0.705551" stroke-miterlimit="10" stroke-linecap="square"/>
<path opacity="0.395062" d="M2198.15 540.685C2198.15 540.685 2069.35 473.605 1946.15 473.605C1822.95 473.605 1763.08 524.642 1566.16 524.642C1369.25 524.642 1248.92 527.277 1075.91 527.277C902.894 527.277 883.425 536.664 740.655 536.664C597.886 536.664 499.652 532.811 355.966 528.873C212.279 524.936 116.793 530.028 -2.7429 530.028C-122.279 530.028 -280.877 482.781 -280.877 482.781" stroke="#E0F1F8" stroke-width="0.705551" stroke-miterlimit="10" stroke-linecap="square"/>
<path opacity="0.388889" d="M2198.15 533.441C2198.15 533.441 2069.7 467.074 1946.15 467.074C1822.6 467.074 1763.38 516.421 1566.31 516.421C1369.25 516.421 1248.62 524.296 1075.59 524.296C902.547 524.296 883.55 529.157 740.681 529.157C597.812 529.157 499.577 529.545 355.891 525.377C212.204 521.209 116.793 522.868 -2.7429 522.868C-122.279 522.868 -280.877 476.156 -280.877 476.156" stroke="#E0F1F8" stroke-width="0.705551" stroke-miterlimit="10" stroke-linecap="square"/>
<path opacity="0.382716" d="M2198.15 526.186C2198.15 526.186 2070 460.544 1946.15 460.544C1822.3 460.544 1763.7 508.242 1566.49 508.242C1369.27 508.242 1248.3 521.303 1075.29 521.303C902.275 521.303 883.673 521.639 740.705 521.639C597.737 521.639 499.503 526.291 355.817 521.891C212.131 517.492 116.793 515.707 -2.7429 515.707C-122.279 515.707 -280.877 469.51 -280.877 469.51" stroke="#E0F1F8" stroke-width="0.705551" stroke-miterlimit="10" stroke-linecap="square"/>
<path opacity="0.376543" d="M2198.15 518.93C2198.15 518.93 2070.27 454.013 1946.15 454.013C1822.03 454.013 1764.02 500.053 1566.63 500.053C1369.25 500.053 1247.98 518.384 1074.99 518.384C902.002 518.384 883.797 514.185 740.73 514.185C597.663 514.185 499.404 523.088 355.718 518.448C212.032 513.807 116.793 508.599 -2.7429 508.599C-122.279 508.599 -280.877 462.916 -280.877 462.916" stroke="#E0F1F8" stroke-width="0.705551" stroke-miterlimit="10" stroke-linecap="square"/>
<path opacity="0.37037" d="M2198.15 511.675C2198.15 511.675 2070.57 447.493 1946.15 447.493C1821.73 447.493 1764.34 491.853 1566.81 491.853C1369.27 491.853 1247.66 515.413 1074.67 515.413C901.68 515.413 883.945 506.709 740.755 506.709C597.564 506.709 499.329 519.865 355.643 514.993C211.957 510.121 116.793 501.47 -2.7429 501.47C-122.279 501.47 -280.877 456.323 -280.877 456.323" stroke="#E0F1F8" stroke-width="0.705551" stroke-miterlimit="10" stroke-linecap="square"/>
<path opacity="0.364198" d="M2198.15 504.42C2198.15 504.42 2070.86 440.962 1946.15 440.962C1821.44 440.962 1764.66 483.653 1566.96 483.653C1369.25 483.653 1247.43 512.452 1074.37 512.452C901.308 512.452 884.07 499.255 740.78 499.255C597.49 499.255 499.255 516.663 355.569 511.57C211.883 506.478 116.793 494.383 -2.7429 494.383C-122.279 494.383 -280.877 449.708 -280.877 449.708" stroke="#E0F1F8" stroke-width="0.705551" stroke-miterlimit="10" stroke-linecap="square"/>
<path opacity="0.358025" d="M2198.15 497.155C2198.15 497.155 2071.13 434.421 1946.15 434.421C1821.16 434.421 1764.96 475.442 1567.18 475.442C1369.4 475.442 1247.11 509.471 1074.15 509.471C901.185 509.471 884.267 491.716 740.854 491.716C597.44 491.716 499.255 513.376 355.544 508.043C211.833 502.709 116.868 487.191 -2.66791 487.191C-122.204 487.191 -280.802 443.02 -280.802 443.02" stroke="#E0F1F8" stroke-width="0.705551" stroke-miterlimit="10" stroke-linecap="square"/>
<path opacity="0.351852" d="M2198.15 489.91C2198.15 489.91 2071.43 427.859 1946.17 427.859C1820.92 427.859 1765.36 467.221 1567.2 467.221C1369.05 467.221 1246.64 506.478 1073.68 506.478C900.714 506.478 884.243 484.188 740.73 484.188C597.217 484.188 499.007 510.111 355.321 504.546C211.635 498.982 116.719 480.02 -2.81689 480.02C-122.353 480.02 -280.951 436.364 -280.951 436.364" stroke="#E0F1F8" stroke-width="0.705551" stroke-miterlimit="10" stroke-linecap="square"/>
<path opacity="0.345679" d="M2198.15 482.666C2198.15 482.666 2071.83 421.37 1946.15 421.37C1820.47 421.37 1765.61 459.063 1567.43 459.063C1369.25 459.063 1246.39 503.559 1073.46 503.559C900.517 503.559 884.441 476.744 740.83 476.744C597.218 476.744 499.007 506.909 355.321 501.124C211.635 495.338 116.793 472.922 -2.7429 472.922C-122.279 472.922 -280.877 429.78 -280.877 429.78" stroke="#E0F1F8" stroke-width="0.705551" stroke-miterlimit="10" stroke-linecap="square"/>
<path opacity="0.339506" d="M2198.15 475.411C2198.15 475.411 2072.03 414.84 1946.15 414.84C1820.27 414.84 1765.93 450.863 1567.6 450.863C1369.27 450.863 1246.1 500.588 1073.16 500.588C900.219 500.588 884.565 469.258 740.854 469.258C597.143 469.258 498.934 503.675 355.247 497.606C211.561 491.538 116.793 465.741 -2.7429 465.741C-122.279 465.741 -280.877 423.103 -280.877 423.103" stroke="#E0F1F8" stroke-width="0.705551" stroke-miterlimit="10" stroke-linecap="square"/>
<path opacity="0.333333" d="M2198.15 468.156C2198.15 468.156 2072.3 408.309 1946.15 408.309C1820 408.309 1766.25 442.663 1567.75 442.663C1369.25 442.663 1245.75 497.627 1072.84 497.627C899.922 497.627 884.59 461.762 740.929 461.762C597.267 461.762 498.884 500.441 355.198 494.184C211.511 487.926 116.843 458.643 -2.69331 458.643C-122.23 458.643 -280.827 416.52 -280.827 416.52" stroke="#E0F1F8" stroke-width="0.705551" stroke-miterlimit="10" stroke-linecap="square"/>
<path opacity="0.327161" d="M2198.15 460.9C2198.15 460.9 2072.6 401.779 1946.15 401.779C1819.7 401.779 1766.57 434.474 1567.9 434.474C1369.22 434.474 1245.45 494.656 1072.51 494.656C899.575 494.656 884.788 454.275 740.879 454.275C596.97 454.275 498.735 497.197 355.049 490.708C211.363 484.22 116.769 451.504 -2.76709 451.504C-122.303 451.504 -280.901 409.895 -280.901 409.895" stroke="#E0F1F8" stroke-width="0.705551" stroke-miterlimit="10" stroke-linecap="square"/>
<path opacity="0.320988" d="M2198.15 453.646C2198.15 453.646 2072.89 395.248 1946.15 395.248C1819.41 395.248 1766.87 426.274 1568.07 426.274C1369.27 426.274 1245.13 491.695 1072.24 491.695C899.352 491.695 884.937 446.779 740.929 446.779C596.92 446.779 498.686 493.963 354.999 487.243C211.313 480.524 116.793 444.364 -2.7429 444.364C-122.279 444.364 -280.877 403.259 -280.877 403.259" stroke="#E0F1F8" stroke-width="0.705551" stroke-miterlimit="10" stroke-linecap="square"/>
<path opacity="0.314815" d="M2198.15 446.39C2198.15 446.39 2073.19 388.717 1946.15 388.717C1819.11 388.717 1767.19 418.116 1568.22 418.116C1369.25 418.116 1244.81 488.755 1071.82 488.755C898.832 488.755 884.986 439.324 740.854 439.324C596.722 439.324 498.512 490.771 354.801 483.81C211.09 476.849 116.694 437.256 -2.84207 437.256C-122.378 437.256 -280.976 396.665 -280.976 396.665" stroke="#E0F1F8" stroke-width="0.705551" stroke-miterlimit="10" stroke-linecap="square"/>
<path opacity="0.308642" d="M2198.15 439.135C2198.15 439.135 2073.46 382.187 1946.15 382.187C1818.84 382.187 1767.51 409.874 1568.39 409.874C1369.27 409.874 1244.51 485.763 1071.62 485.763C898.733 485.763 885.209 431.807 740.978 431.807C596.747 431.807 498.511 487.453 354.825 480.303C211.139 473.153 116.793 430.085 -2.7429 430.085C-122.279 430.085 -280.877 389.998 -280.877 389.998" stroke="#E0F1F8" stroke-width="0.705551" stroke-miterlimit="10" stroke-linecap="square"/>
<path opacity="0.302469" d="M2198.15 431.891C2198.15 431.891 2073.76 375.656 1946.15 375.656C1818.54 375.656 1767.81 401.684 1568.54 401.684C1369.27 401.684 1244.19 482.792 1071.32 482.792C898.46 482.792 885.333 424.31 741.002 424.31C596.672 424.31 498.438 484.251 354.751 476.807C211.065 469.363 116.793 422.924 -2.7429 422.924C-122.279 422.924 -280.877 383.342 -280.877 383.342" stroke="#E0F1F8" stroke-width="0.705551" stroke-miterlimit="10" stroke-linecap="square"/>
<path opacity="0.296296" d="M2198.15 424.636C2198.15 424.636 2074.06 369.136 1946.15 369.136C1818.24 369.136 1768.16 393.484 1568.69 393.484C1369.22 393.484 1243.87 479.831 1071 479.831C898.138 479.831 885.457 416.835 741.028 416.835C596.599 416.835 498.29 481.028 354.628 473.384C210.967 465.741 116.843 415.827 -2.79227 415.827C-122.428 415.827 -280.926 376.759 -280.926 376.759" stroke="#E0F1F8" stroke-width="0.705551" stroke-miterlimit="10" stroke-linecap="square"/>
<path opacity="0.290123" d="M2198.15 417.36C2198.15 417.36 2074.31 362.585 1946.15 362.585C1817.99 362.585 1768.45 385.263 1568.86 385.263C1369.27 385.263 1243.54 476.839 1070.71 476.839C897.866 476.839 885.58 409.307 741.052 409.307C596.524 409.307 498.314 477.763 354.652 469.878C210.991 461.993 116.868 408.656 -2.66791 408.656C-122.204 408.656 -280.877 370.113 -280.877 370.113" stroke="#E0F1F8" stroke-width="0.705551" stroke-miterlimit="10" stroke-linecap="square"/>
<path opacity="0.283951" d="M2198.15 410.126C2198.15 410.126 2074.63 356.075 1946.15 356.075C1817.67 356.075 1768.78 377.074 1569.01 377.074C1369.25 377.074 1243.25 473.888 1070.41 473.888C897.569 473.888 885.705 401.831 740.978 401.831C596.252 401.831 498.091 474.529 354.404 466.423C210.718 458.318 116.62 401.527 -2.84207 401.527C-122.304 401.527 -280.976 363.477 -280.976 363.477" stroke="#E0F1F8" stroke-width="0.705551" stroke-miterlimit="10" stroke-linecap="square"/>
<path opacity="0.277778" d="M2198.15 402.871C2198.15 402.871 2074.92 349.544 1946.15 349.544C1817.37 349.544 1769.1 368.884 1569.19 368.884C1369.27 368.884 1242.93 470.906 1070.09 470.906C897.246 470.906 885.828 394.324 741.102 394.324C596.375 394.324 498.116 471.284 354.43 462.937C210.743 454.59 116.793 394.377 -2.7429 394.377C-122.279 394.377 -280.877 356.841 -280.877 356.841" stroke="#E0F1F8" stroke-width="0.705551" stroke-miterlimit="10" stroke-linecap="square"/>
<path opacity="0.271605" d="M2198.15 395.616C2198.15 395.616 2075.22 343.014 1946.15 343.014C1817.08 343.014 1769.42 360.695 1569.33 360.695C1369.25 360.695 1242.6 467.967 1069.79 467.967C896.975 467.967 886.052 386.912 741.127 386.912C596.202 386.912 498.041 468.124 354.355 459.546C210.668 450.968 116.793 387.311 -2.7429 387.311C-122.279 387.311 -280.877 350.279 -280.877 350.279" stroke="#E0F1F8" stroke-width="0.705551" stroke-miterlimit="10" stroke-linecap="square"/>
<path opacity="0.265432" d="M2198.15 388.361C2198.15 388.361 2075.49 336.515 1946.17 336.515C1816.85 336.515 1769.77 352.526 1569.51 352.526C1369.25 352.526 1242.31 465.027 1069.52 465.027C896.726 465.027 886.224 379.405 741.175 379.405C596.127 379.405 497.967 464.859 354.281 456.05C210.595 447.241 116.819 380.14 -2.71771 380.14C-122.254 380.14 -280.851 343.623 -280.851 343.623" stroke="#E0F1F8" stroke-width="0.705551" stroke-miterlimit="10" stroke-linecap="square"/>
<path opacity="0.259259" d="M2198.15 381.116C2198.15 381.116 2075.79 329.953 1946.15 329.953C1816.51 329.953 1770.04 344.295 1569.66 344.295C1369.27 344.295 1241.99 462.035 1069.17 462.035C896.356 462.035 886.224 371.877 741.175 371.877C596.127 371.877 497.868 461.594 354.182 452.554C210.496 443.514 116.793 372.979 -2.7429 372.979C-122.279 372.979 -280.877 336.966 -280.877 336.966" stroke="#E0F1F8" stroke-width="0.705551" stroke-miterlimit="10" stroke-linecap="square"/>
<path opacity="0.253086" d="M2198.15 373.861C2198.15 373.861 2076.09 323.464 1946.15 323.464C1816.21 323.464 1770.31 336.095 1569.68 336.095C1369.05 336.095 1241.54 459.063 1068.75 459.063C895.958 459.063 886.225 364.391 741.077 364.391C595.93 364.391 497.67 458.36 353.983 449.089C210.297 439.818 116.67 365.839 -2.86626 365.839C-122.403 365.839 -281 330.341 -281 330.341" stroke="#E0F1F8" stroke-width="0.705551" stroke-miterlimit="10" stroke-linecap="square"/>
<path opacity="0.246914" d="M2198.15 366.606C2198.15 366.606 2076.39 316.891 1946.15 316.891C1815.91 316.891 1770.68 327.905 1569.98 327.905C1369.27 327.905 1241.34 456.102 1068.58 456.102C895.81 456.102 886.472 356.894 741.225 356.894C595.978 356.894 497.72 455.115 354.009 445.624C210.298 436.133 116.794 358.7 -2.66791 358.7C-122.13 358.7 -280.802 323.716 -280.802 323.716" stroke="#E0F1F8" stroke-width="0.705551" stroke-miterlimit="10" stroke-linecap="square"/>
<path opacity="0.240741" d="M2198.15 359.351C2198.15 359.351 2076.78 310.361 1946.15 310.361C1815.52 310.361 1771.01 319.705 1570.13 319.705C1369.25 319.705 1241.02 453.131 1068.25 453.131C895.488 453.131 886.596 349.408 741.3 349.408C596.004 349.408 497.67 451.882 353.983 442.149C210.297 432.416 116.843 351.571 -2.69331 351.571C-122.23 351.571 -280.827 317.08 -280.827 317.08" stroke="#E0F1F8" stroke-width="0.705551" stroke-miterlimit="10" stroke-linecap="square"/>
<path opacity="0.234568" d="M2198.15 352.096C2198.15 352.096 2076.96 303.799 1946.15 303.799C1815.34 303.799 1771.33 311.474 1570.28 311.474C1369.22 311.474 1240.72 450.139 1067.96 450.139C895.191 450.139 886.719 341.89 741.274 341.89C595.83 341.89 497.546 448.616 353.86 438.653C210.174 428.689 116.794 344.4 -2.81689 344.4C-122.427 344.4 -280.951 310.424 -280.951 310.424" stroke="#E0F1F8" stroke-width="0.705551" stroke-miterlimit="10" stroke-linecap="square"/>
<path opacity="0.228395" d="M2198.15 344.841C2198.15 344.841 2077.25 297.3 1946.15 297.3C1815.05 297.3 1771.63 303.305 1570.45 303.305C1369.27 303.305 1240.4 447.199 1067.63 447.199C894.869 447.199 886.844 334.415 741.3 334.415C595.756 334.415 497.471 445.403 353.785 435.209C210.099 425.014 116.793 337.292 -2.7429 337.292C-122.279 337.292 -280.877 303.83 -280.877 303.83" stroke="#E0F1F8" stroke-width="0.705551" stroke-miterlimit="10" stroke-linecap="square"/>
<path opacity="0.222222" d="M2198.15 337.565C2198.15 337.565 2077.45 290.78 1946.17 290.78C1814.9 290.78 1771.97 295.116 1570.62 295.116C1369.27 295.116 1240.1 444.207 1067.36 444.207C894.622 444.207 886.992 326.908 741.349 326.908C595.706 326.908 497.422 442.138 353.711 431.712C210 421.287 116.819 330.121 -2.71771 330.121C-122.254 330.121 -280.851 297.163 -280.851 297.163" stroke="#E0F1F8" stroke-width="0.705551" stroke-miterlimit="10" stroke-linecap="square"/>
<path opacity="0.216049" d="M2198.15 330.341C2198.15 330.341 2077.82 284.249 1946.15 284.249C1814.48 284.249 1772.27 286.916 1570.77 286.916C1369.27 286.916 1239.76 441.256 1067.04 441.256C894.324 441.256 887.116 319.464 741.35 319.464C595.583 319.464 497.174 438.936 353.513 428.279C209.851 417.622 116.694 323.013 -2.84207 323.013C-122.378 323.013 -280.976 290.57 -280.976 290.57" stroke="#E0F1F8" stroke-width="0.705551" stroke-miterlimit="10" stroke-linecap="square"/>
<path opacity="0.209877" d="M2198.15 323.086C2198.15 323.086 2078.12 277.718 1946.17 277.718C1814.23 277.718 1772.62 278.768 1570.94 278.768C1369.27 278.768 1239.48 438.358 1066.77 438.358C894.051 438.358 887.265 312.009 741.399 312.009C595.533 312.009 497.174 435.702 353.513 424.804C209.851 413.905 116.769 315.873 -2.76709 315.873C-122.303 315.873 -280.901 283.934 -280.901 283.934" stroke="#E0F1F8" stroke-width="0.705551" stroke-miterlimit="10" stroke-linecap="square"/>
<path opacity="0.203704" d="M2198.15 315.831C2198.15 315.831 2078.42 271.188 1946.15 271.188C1813.88 271.188 1772.91 270.516 1571.09 270.516C1369.27 270.516 1239.19 435.356 1066.42 435.356C893.655 435.356 887.364 304.492 741.399 304.492C595.434 304.492 497.174 432.458 353.513 421.339C209.851 410.22 116.843 308.733 -2.69331 308.733C-122.23 308.733 -280.827 277.309 -280.827 277.309" stroke="#E0F1F8" stroke-width="0.705551" stroke-miterlimit="10" stroke-linecap="square"/>
<path opacity="0.197531" d="M2198.15 308.576C2198.15 308.576 2078.69 264.657 1946.15 264.657C1813.61 264.657 1773.23 262.316 1571.24 262.316C1369.25 262.316 1238.81 432.405 1066.12 432.405C893.433 432.405 887.487 296.964 741.423 296.964C595.359 296.964 497.05 429.256 353.364 417.864C209.678 406.472 116.793 301.583 -2.7429 301.583C-122.279 301.583 -280.877 270.673 -280.877 270.673" stroke="#E0F1F8" stroke-width="0.705551" stroke-miterlimit="10" stroke-linecap="square"/>
<path opacity="0.191358" d="M2198.15 301.321C2198.15 301.321 2078.99 258.127 1946.15 258.127C1813.31 258.127 1773.53 254.126 1571.39 254.126C1369.25 254.126 1238.49 429.402 1065.83 429.402C893.16 429.402 887.612 289.488 741.35 289.488C595.087 289.488 496.877 425.98 353.191 414.43C209.505 402.881 116.694 294.486 -2.84207 294.486C-122.378 294.486 -280.976 264.038 -280.976 264.038" stroke="#E0F1F8" stroke-width="0.705551" stroke-miterlimit="10" stroke-linecap="square"/>
<path opacity="0.185185" d="M2198.15 294.066C2198.15 294.066 2079.26 251.596 1946.15 251.596C1813.04 251.596 1773.85 245.926 1571.56 245.926C1369.27 245.926 1238.2 426.442 1065.5 426.442C892.814 426.442 887.735 281.992 741.473 281.992C595.211 281.992 496.902 422.746 353.215 410.934C209.529 399.122 116.793 287.315 -2.7429 287.315C-122.279 287.315 -280.877 257.423 -280.877 257.423" stroke="#E0F1F8" stroke-width="0.705551" stroke-miterlimit="10" stroke-linecap="square"/>
<path opacity="0.179012" d="M2198.15 286.811C2198.15 286.811 2079.58 245.065 1946.17 245.065C1812.77 245.065 1774.2 237.716 1571.74 237.716C1369.27 237.716 1237.9 423.46 1065.23 423.46C892.565 423.46 887.884 274.495 741.522 274.495C595.161 274.495 496.853 419.502 353.141 407.448C209.43 395.395 116.819 280.175 -2.71771 280.175C-122.254 280.175 -280.851 250.777 -280.851 250.777" stroke="#E0F1F8" stroke-width="0.705551" stroke-miterlimit="10" stroke-linecap="square"/>
<path opacity="0.17284" d="M2198.15 279.566C2198.15 279.566 2079.93 238.535 1946.17 238.535C1812.42 238.535 1774.52 229.526 1571.91 229.526C1369.3 229.526 1237.53 420.51 1064.93 420.51C892.343 420.51 888.033 267.019 741.548 267.019C595.063 267.019 496.753 416.278 353.067 403.994C209.38 391.71 116.819 273.046 -2.7175 273.046C-122.254 273.046 -280.877 244.12 -280.877 244.12" stroke="#E0F1F8" stroke-width="0.705551" stroke-miterlimit="10" stroke-linecap="square"/>
<path opacity="0.166667" d="M2198.15 272.311C2198.15 272.311 2080.15 232.004 1946.15 232.004C1812.15 232.004 1774.82 221.337 1572.13 221.337C1369.45 221.337 1237.33 417.538 1064.69 417.538C892.045 417.538 888.231 259.523 741.647 259.523C595.063 259.523 496.753 413.034 353.066 400.529C209.38 388.025 116.892 265.907 -2.64394 265.907C-122.18 265.907 -280.778 237.558 -280.778 237.558" stroke="#E0F1F8" stroke-width="0.705551" stroke-miterlimit="10" stroke-linecap="square"/>
<path opacity="0.160494" d="M2198.15 265.056C2198.15 265.056 2080.45 225.474 1946.15 225.474C1811.85 225.474 1775.12 213.137 1572.13 213.137C1369.15 213.137 1236.88 414.577 1064.24 414.577C891.599 414.577 888.206 252.037 741.523 252.037C594.839 252.037 496.53 409.8 352.844 397.054C209.158 384.308 116.793 258.82 -2.7429 258.82C-122.279 258.82 -280.877 230.954 -280.877 230.954" stroke="#E0F1F8" stroke-width="0.705551" stroke-miterlimit="10" stroke-linecap="square"/>
<path opacity="0.154321" d="M2198.15 257.77C2198.15 257.77 2080.75 218.922 1946.15 218.922C1811.55 218.922 1775.44 204.916 1572.36 204.916C1369.27 204.916 1236.61 411.585 1063.97 411.585C891.327 411.585 888.38 244.519 741.597 244.519C594.815 244.519 496.382 406.545 352.721 393.61C209.059 380.675 116.719 251.648 -2.81689 251.648C-122.353 251.648 -280.951 224.35 -280.951 224.35" stroke="#E0F1F8" stroke-width="0.705551" stroke-miterlimit="10" stroke-linecap="square"/>
<path opacity="0.148148" d="M2198.15 250.546C2198.15 250.546 2081.02 212.423 1946.15 212.423C1811.28 212.423 1775.76 196.737 1572.51 196.737C1369.25 196.737 1236.29 408.645 1063.67 408.645C891.054 408.645 888.503 237.054 741.671 237.054C594.839 237.054 496.456 403.333 352.795 390.124C209.133 376.916 116.868 244.488 -2.66791 244.488C-122.204 244.488 -280.802 217.651 -280.802 217.651" stroke="#E0F1F8" stroke-width="0.705551" stroke-miterlimit="10" stroke-linecap="square"/>
<path opacity="0.141975" d="M2198.15 243.291C2198.15 243.291 2081.32 205.892 1946.15 205.892C1810.98 205.892 1776.08 188.547 1572.68 188.547C1369.27 188.547 1235.97 405.674 1063.37 405.674C890.782 405.674 888.529 229.568 741.647 229.568C594.766 229.568 496.431 400.088 352.646 386.649C208.86 373.21 116.793 237.348 -2.7429 237.348C-122.279 237.348 -280.877 211.016 -280.877 211.016" stroke="#E0F1F8" stroke-width="0.705551" stroke-miterlimit="10" stroke-linecap="square"/>
<path opacity="0.135802" d="M2198.15 236.036C2198.15 236.036 2081.74 199.362 1946.15 199.362C1810.56 199.362 1776.41 180.347 1572.83 180.347C1369.25 180.347 1235.64 402.713 1063.05 402.713C890.46 402.713 888.751 222.124 741.671 222.124C594.592 222.124 496.258 396.907 352.547 383.237C208.836 369.567 116.793 230.261 -2.7429 230.261C-122.279 230.261 -280.877 204.443 -280.877 204.443" stroke="#E0F1F8" stroke-width="0.705551" stroke-miterlimit="10" stroke-linecap="square"/>
<path opacity="0.12963" d="M2198.15 228.791C2198.15 228.791 2081.88 192.831 1946.15 192.831C1810.41 192.831 1776.7 172.147 1572.98 172.147C1369.25 172.147 1235.35 399.742 1062.73 399.742C890.113 399.742 888.85 214.586 741.671 214.586C594.493 214.586 496.134 393.621 352.447 379.709C208.761 365.797 116.793 223.122 -2.7429 223.122C-122.279 223.122 -280.877 197.818 -280.877 197.818" stroke="#E0F1F8" stroke-width="0.705551" stroke-miterlimit="10" stroke-linecap="square"/>
<path opacity="0.123457" d="M2198.15 221.536C2198.15 221.536 2082.18 186.3 1946.15 186.3C1810.12 186.3 1777.02 163.947 1573.15 163.947C1369.27 163.947 1235.03 396.781 1062.46 396.781C889.891 396.781 889.073 207.089 741.721 207.089C594.369 207.089 496.084 390.376 352.398 376.244C208.712 362.112 116.793 215.93 -2.7429 215.93C-122.279 215.93 -280.877 191.13 -280.877 191.13" stroke="#E0F1F8" stroke-width="0.705551" stroke-miterlimit="10" stroke-linecap="square"/>
<path opacity="0.117284" d="M2198.15 214.281C2198.15 214.281 2082.4 179.77 1946.17 179.77C1809.94 179.77 1777.37 155.758 1573.32 155.758C1369.27 155.758 1234.73 393.81 1062.16 393.81C889.593 393.81 889.172 199.572 741.77 199.572C594.369 199.572 496.034 387.111 352.348 372.748C208.662 358.385 116.819 208.769 -2.71771 208.769C-122.254 208.769 -280.851 184.474 -280.851 184.474" stroke="#E0F1F8" stroke-width="0.705551" stroke-miterlimit="10" stroke-linecap="square"/>
<path opacity="0.111111" d="M2198.15 207.026C2198.15 207.026 2082.78 173.239 1946.15 173.239C1809.52 173.239 1777.74 147.526 1573.47 147.526C1369.2 147.526 1234.38 390.817 1061.84 390.817C889.296 390.817 889.271 192.086 741.77 192.086C594.27 192.086 495.936 383.877 352.225 369.273C208.514 354.668 116.917 201.629 -2.7429 201.629C-122.403 201.629 -280.877 177.838 -280.877 177.838" stroke="#E0F1F8" stroke-width="0.705551" stroke-miterlimit="10" stroke-linecap="square"/>
<path opacity="0.104938" d="M2198.15 199.771C2198.15 199.771 2083.05 166.709 1946.15 166.709C1809.25 166.709 1777.99 139.41 1573.62 139.41C1369.25 139.41 1234.08 387.93 1061.54 387.93C888.999 387.93 889.394 184.673 741.795 184.673C594.195 184.673 495.837 380.717 352.151 365.892C208.465 351.067 116.843 194.574 -2.7429 194.574C-122.329 194.574 -280.877 171.297 -280.877 171.297" stroke="#E0F1F8" stroke-width="0.705551" stroke-miterlimit="10" stroke-linecap="square"/>
<path opacity="0.0987654" d="M2198.15 192.516C2198.15 192.516 2083.35 160.178 1946.15 160.178C1808.95 160.178 1778.29 131.158 1573.77 131.158C1369.25 131.158 1233.76 384.917 1061.22 384.917C888.677 384.917 889.519 177.135 741.82 177.135C594.121 177.135 495.762 377.431 352.076 362.375C208.39 347.319 116.793 187.424 -2.7429 187.424C-122.279 187.424 -280.877 164.661 -280.877 164.661" stroke="#E0F1F8" stroke-width="0.705551" stroke-miterlimit="10" stroke-linecap="square"/>
<path opacity="0.0925926" d="M2198.15 185.324C2198.15 185.324 2083.64 153.7 1946.15 153.7C1808.66 153.7 1778.61 123.01 1573.94 123.01C1369.27 123.01 1233.44 381.998 1060.92 381.998C888.404 381.998 889.642 169.69 741.844 169.69C594.046 169.69 495.689 374.249 352.002 358.952C208.316 343.654 116.694 180.295 -2.7429 180.295C-122.18 180.295 -280.877 158.026 -280.877 158.026" stroke="#E0F1F8" stroke-width="0.705551" stroke-miterlimit="10" stroke-linecap="square"/>
<path opacity="0.0864198" d="M2198.15 177.975C2198.15 177.975 2083.94 147.075 1946.15 147.075C1808.36 147.075 1778.93 114.726 1574.09 114.726C1369.25 114.726 1233.12 378.943 1060.62 378.943C888.132 378.943 889.717 162.11 741.87 162.11C594.022 162.11 495.589 370.911 351.903 355.393C208.217 339.875 116.793 173.061 -2.7429 173.061C-122.279 173.061 -280.877 151.317 -280.877 151.317" stroke="#E0F1F8" stroke-width="0.705551" stroke-miterlimit="10" stroke-linecap="square"/>
<path opacity="0.0802469" d="M2198.15 170.761C2198.15 170.761 2084.21 140.586 1946.15 140.586C1808.09 140.586 1779.25 106.568 1574.26 106.568C1369.27 106.568 1232.82 376.013 1060.3 376.013C887.785 376.013 889.89 154.666 741.894 154.666C593.898 154.666 495.514 367.719 351.828 351.959C208.142 336.2 116.793 165.963 -2.7429 165.963C-122.279 165.963 -280.877 144.734 -280.877 144.734" stroke="#E0F1F8" stroke-width="0.705551" stroke-miterlimit="10" stroke-linecap="square"/>
<path opacity="0.0740741" d="M2198.15 163.506C2198.15 163.506 2084.51 134.108 1946.15 134.108C1807.79 134.108 1779.58 98.4104 1574.41 98.4104C1369.25 98.4104 1232.6 373.094 1060.01 373.094C887.413 373.094 890.039 147.211 741.919 147.211C593.799 147.211 495.441 364.548 351.754 348.536C208.068 332.525 116.793 158.866 -2.7429 158.866C-122.279 158.866 -280.877 138.077 -280.877 138.077" stroke="#E0F1F8" stroke-width="0.705551" stroke-miterlimit="10" stroke-linecap="square"/>
<path opacity="0.0679012" d="M2198.15 156.251C2198.15 156.251 2084.88 127.578 1946.17 127.578C1807.47 127.578 1779.92 90.2104 1574.64 90.2104C1369.35 90.2104 1232.18 370.113 1059.71 370.113C887.24 370.113 890.162 139.715 741.943 139.715C593.724 139.715 495.366 361.251 351.655 345.061C207.944 328.871 116.793 151.726 -2.7429 151.726C-122.279 151.726 -280.877 131.515 -280.877 131.515" stroke="#E0F1F8" stroke-width="0.705551" stroke-miterlimit="10" stroke-linecap="square"/>
<path opacity="0.0617284" d="M2198.15 148.996C2198.15 148.996 2085.1 121.005 1946.15 121.005C1807.19 121.005 1780.2 81.9789 1574.73 81.9789C1369.27 81.9789 1231.85 367.12 1059.39 367.12C886.918 367.12 890.287 132.187 741.969 132.187C593.651 132.187 495.268 358.007 351.581 341.554C207.895 325.102 116.793 144.545 -2.7429 144.545C-122.279 144.545 -280.877 124.837 -280.877 124.837" stroke="#E0F1F8" stroke-width="0.705551" stroke-miterlimit="10" stroke-linecap="square"/>
<path opacity="0.0555556" d="M2198.15 141.741C2198.15 141.741 2085.38 114.443 1946.15 114.443C1806.92 114.443 1780.52 73.7474 1574.88 73.7474C1369.25 73.7474 1231.56 364.117 1059.09 364.117C886.62 364.117 890.41 124.669 742.042 124.669C593.675 124.669 495.242 354.741 351.556 338.058C207.87 321.375 116.843 137.384 -2.64394 137.384C-122.131 137.384 -280.778 118.181 -280.778 118.181" stroke="#E0F1F8" stroke-width="0.705551" stroke-miterlimit="10" stroke-linecap="square"/>
<path opacity="0.0493827" d="M2198.15 134.497C2198.15 134.497 2085.67 107.944 1946.17 107.944C1806.67 107.944 1780.84 65.6313 1575.06 65.6313C1369.27 65.6313 1231.24 361.241 1058.79 361.241C886.349 361.241 890.535 117.267 742.018 117.267C593.502 117.267 495.119 351.592 351.433 334.677C207.747 317.763 116.794 130.328 -2.76709 130.328C-122.328 130.328 -280.901 111.64 -280.901 111.64" stroke="#E0F1F8" stroke-width="0.705551" stroke-miterlimit="10" stroke-linecap="square"/>
<path opacity="0.0432099" d="M2198.15 127.242C2198.15 127.242 2085.97 101.413 1946.15 101.413C1806.33 101.413 1781.16 57.379 1575.21 57.379C1369.25 57.379 1230.91 358.217 1058.47 358.217C886.026 358.217 890.658 109.729 742.043 109.729C593.427 109.729 495.02 348.306 351.334 331.16C207.647 314.015 116.793 123.147 -2.7429 123.147C-122.279 123.147 -280.877 104.962 -280.877 104.962" stroke="#E0F1F8" stroke-width="0.705551" stroke-miterlimit="10" stroke-linecap="square"/>
<path opacity="0.037037" d="M2198.15 119.987C2198.15 119.987 2086.24 94.8826 1946.15 94.8826C1806.05 94.8826 1781.48 49.1895 1575.35 49.1895C1369.22 49.1895 1230.59 355.256 1058.17 355.256C885.754 355.256 890.782 102.222 742.068 102.222C593.354 102.222 494.945 345.051 351.259 327.674C207.572 310.298 116.793 116.028 -2.7429 116.028C-122.279 116.028 -280.877 98.3579 -280.877 98.3579" stroke="#E0F1F8" stroke-width="0.705551" stroke-miterlimit="10" stroke-linecap="square"/>
<path opacity="0.0308642" d="M2198.15 112.731C2198.15 112.731 2086.54 88.352 1946.15 88.352C1805.76 88.352 1781.78 40.9894 1575.53 40.9894C1369.27 40.9894 1230.34 352.264 1057.88 352.264C885.407 352.264 890.906 94.7146 742.092 94.7146C593.279 94.7146 494.871 341.806 351.185 324.188C207.499 306.571 116.793 108.836 -2.7429 108.836C-122.279 108.836 -280.877 91.6802 -280.877 91.6802" stroke="#E0F1F8" stroke-width="0.705551" stroke-miterlimit="10" stroke-linecap="square"/>
<path opacity="0.0246914" d="M2198.15 105.529C2198.15 105.529 2086.84 81.8739 1946.15 81.8739C1805.46 81.8739 1782.1 32.842 1575.68 32.842C1369.25 32.842 1229.97 349.376 1057.55 349.376C885.135 349.376 891.005 87.2497 742.118 87.2497C593.23 87.2497 494.698 338.615 351.036 320.766C207.375 302.917 116.744 101.739 -2.79227 101.739C-122.329 101.739 -280.926 85.0868 -280.926 85.0868" stroke="#E0F1F8" stroke-width="0.705551" stroke-miterlimit="10" stroke-linecap="square"/>
<path opacity="0.0185185" d="M2198.15 98.1795C2198.15 98.1795 2087.14 75.2909 1946.17 75.2909C1805.21 75.2909 1782.45 24.5895 1575.87 24.5895C1369.3 24.5895 1229.67 346.363 1057.28 346.363C884.887 346.363 891.203 79.7636 742.167 79.7636C593.131 79.7636 494.697 335.349 351.036 317.28C207.374 299.211 116.819 94.5782 -2.71771 94.5782C-122.254 94.5782 -280.851 78.4407 -280.851 78.4407" stroke="#E0F1F8" stroke-width="0.705551" stroke-miterlimit="10" stroke-linecap="square"/>
<path opacity="0.0123457" d="M2198.15 90.9664C2198.15 90.9664 2087.36 68.7813 1946.17 68.7813C1804.99 68.7813 1782.7 16.4105 1576.02 16.4105C1369.35 16.4105 1229.25 343.413 1056.98 343.413C884.713 343.413 891.327 72.2881 742.167 72.2881C593.007 72.2881 494.697 332.116 351.036 313.805C207.374 295.494 116.892 87.4386 -2.64394 87.4386C-122.18 87.4386 -280.778 71.8051 -280.778 71.8051" stroke="#E0F1F8" stroke-width="0.705551" stroke-miterlimit="10" stroke-linecap="square"/>
<path opacity="0.01" d="M2198.15 83.7219C2198.15 83.7219 2087.71 62.2297 1946.15 62.2297C1804.59 62.2297 1783.07 8.20001 1576.15 8.20001C1369.22 8.20001 1229.03 340.431 1056.64 340.431C884.243 340.431 891.426 64.781 742.068 64.781C592.71 64.781 494.376 328.871 350.714 310.34C207.053 291.809 116.793 80.3306 -2.7429 80.3306C-122.279 80.3306 -280.877 65.2115 -280.877 65.2115" stroke="#E0F1F8" stroke-width="0.705551" stroke-miterlimit="10" stroke-linecap="square"/>
</svg>
