<svg width="22" height="22" viewBox="0 0 22 22" fill="none" xmlns="http://www.w3.org/2000/svg">
<path d="M0.500001 11C0.5 5.20101 5.20101 0.5 11 0.499999C16.799 0.499999 21.5 5.20101 21.5 11C21.5 16.799 16.799 21.5 11 21.5C5.20101 21.5 0.500001 16.799 0.500001 11Z" stroke="#0966A0"/>
<g clip-path="url(#clip0_307_4)">
<path d="M9.43897 14.8802L13.0753 10.7892C13.1435 10.7125 13.1818 10.6084 13.1818 10.4999C13.1818 10.3914 13.1435 10.2873 13.0753 10.2106L9.43894 6.11982C9.29693 5.96006 9.0667 5.96006 8.92469 6.11982C8.7827 6.27956 8.78267 6.5386 8.92469 6.69836L12.3039 10.4999L8.92469 14.3016C8.85368 14.3815 8.81819 14.4862 8.81819 14.5909C8.81819 14.6956 8.85368 14.8003 8.92471 14.8802C9.06672 15.0399 9.29695 15.0399 9.43897 14.8802Z" fill="#0966A0"/>
</g>
<defs>
<clipPath id="clip0_307_4">
<rect width="9" height="8" fill="white" transform="translate(15 6) rotate(90)"/>
</clipPath>
</defs>
</svg>
