<svg width="48" height="49" viewBox="0 0 48 49" fill="none" xmlns="http://www.w3.org/2000/svg">
<circle cx="24" cy="24.3301" r="23.5" stroke="#5A5EA7"/>
<g clip-path="url(#clip0_316_7)">
<path d="M27.5123 15.8998L19.3305 24.0818C19.1771 24.2352 19.0909 24.4434 19.0909 24.6604C19.0909 24.8774 19.1771 25.0855 19.3306 25.2389L27.5124 33.4205C27.8319 33.74 28.3499 33.74 28.6694 33.4205C28.9889 33.101 28.989 32.583 28.6694 32.2634L21.0662 24.6604L28.6694 17.0569C28.8292 16.8971 28.9091 16.6877 28.9091 16.4783C28.9091 16.2689 28.8292 16.0595 28.6694 15.8998C28.3499 15.5803 27.8318 15.5803 27.5123 15.8998Z" fill="#5A5EA7"/>
</g>
<defs>
<clipPath id="clip0_316_7">
<rect width="18" height="18" fill="white" transform="translate(15 33.6602) rotate(-90)"/>
</clipPath>
</defs>
</svg>
