<svg width="84" height="62" viewBox="0 0 84 62" fill="none" xmlns="http://www.w3.org/2000/svg">
<path d="M18.3795 46.2779H19.8127L21.7414 48.9056L23.5581 46.2779H24.8999V52.5186H23.5021V48.5422L21.7694 50.9742H21.5598L19.8332 48.5701V52.5186H18.4355L18.3795 46.2779Z" fill="white"/>
<path d="M29.3731 46.1731C29.8084 46.1433 30.2451 46.2055 30.6548 46.3556C31.0645 46.5056 31.4378 46.7402 31.7508 47.0441C32.0639 47.3479 32.3093 47.7142 32.4715 48.1192C32.6338 48.5242 32.7093 48.9588 32.6926 49.3948C32.7018 49.829 32.6213 50.2605 32.4565 50.6624C32.2917 51.0643 32.0458 51.428 31.7345 51.7308C31.4231 52.0337 31.0529 52.2692 30.6466 52.4228C30.2403 52.5763 29.8069 52.6446 29.3731 52.6235C28.9378 52.6522 28.5014 52.5891 28.0921 52.4382C27.6828 52.2873 27.3098 52.0519 26.9974 51.7474C26.685 51.4429 26.4402 51.076 26.2788 50.6707C26.1174 50.2654 26.0428 49.8307 26.0604 49.3948C26.0512 48.9614 26.1314 48.5308 26.2958 48.1298C26.4603 47.7288 26.7058 47.3658 27.0165 47.0636C27.3273 46.7614 27.6962 46.5264 28.1017 46.3732C28.5071 46.22 28.9402 46.1519 29.3731 46.1731ZM29.3731 51.2886C29.6207 51.2997 29.868 51.2576 30.0979 51.1651C30.3278 51.0725 30.5351 50.9318 30.706 50.7523C30.8769 50.5728 31.007 50.3587 31.0882 50.1245C31.1693 49.8904 31.1994 49.6415 31.1762 49.3948C31.1906 49.1503 31.1541 48.9055 31.0697 48.6756C30.9853 48.4457 30.8547 48.2357 30.6855 48.0586C30.5163 47.8816 30.3128 47.7413 30.087 47.6465C29.8612 47.5518 29.618 47.5046 29.3731 47.5079C29.1279 47.5024 28.8843 47.5481 28.6579 47.6422C28.4314 47.7363 28.2271 47.8767 28.058 48.0543C27.8889 48.232 27.7586 48.4429 27.6758 48.6738C27.593 48.9046 27.5593 49.1502 27.5768 49.3948C27.5685 49.6375 27.6088 49.8796 27.6949 50.1067C27.781 50.3339 27.9113 50.5416 28.0785 50.7179C28.2456 50.8942 28.4458 51.0354 28.6681 51.1334C28.8904 51.2314 29.1302 51.2842 29.3731 51.2886Z" fill="white"/>
<path d="M37.1857 47.6127H35.788L35.6556 48.7938C35.2782 52.0784 34.4955 52.7562 33.0349 52.5186V51.1209C33.5521 51.2048 34.0828 51.0091 34.3343 47.5568L34.4251 46.3058H38.5623V52.5466H37.1297L37.1857 47.6127Z" fill="white"/>
<path d="M43.0844 46.1731C43.5197 46.1433 43.9564 46.2055 44.3661 46.3556C44.7758 46.5056 45.1491 46.7402 45.4621 47.0441C45.7752 47.3479 46.0206 47.7142 46.1828 48.1192C46.3451 48.5242 46.4207 48.9588 46.404 49.3948C46.4131 49.829 46.3326 50.2605 46.1678 50.6624C46.003 51.0643 45.7571 51.428 45.4458 51.7308C45.1344 52.0337 44.7642 52.2692 44.3579 52.4228C43.9516 52.5763 43.5183 52.6446 43.0844 52.6235C42.6491 52.6522 42.2127 52.5891 41.8034 52.4382C41.3941 52.2873 41.0211 52.0519 40.7087 51.7474C40.3963 51.4429 40.1515 51.076 39.9901 50.6707C39.8287 50.2654 39.7541 49.8307 39.7717 49.3948C39.7625 48.9614 39.8427 48.5308 40.0071 48.1298C40.1716 47.7288 40.4164 47.3658 40.7272 47.0636C41.0379 46.7614 41.4075 46.5264 41.813 46.3732C42.2184 46.22 42.6515 46.1519 43.0844 46.1731ZM43.0844 51.2886C43.332 51.2997 43.5786 51.2576 43.8085 51.1651C44.0384 51.0725 44.2464 50.9318 44.4173 50.7523C44.5882 50.5728 44.7183 50.3587 44.7995 50.1245C44.8806 49.8904 44.9107 49.6415 44.8875 49.3948C44.9028 49.149 44.8673 48.9027 44.7838 48.6711C44.7003 48.4395 44.5702 48.2274 44.4016 48.0479C44.233 47.8685 44.0297 47.7255 43.8037 47.6277C43.5777 47.53 43.3341 47.4795 43.0878 47.4795C42.8416 47.4795 42.5979 47.53 42.3719 47.6277C42.1459 47.7255 41.9427 47.8685 41.7741 48.0479C41.6055 48.2274 41.4754 48.4395 41.3919 48.6711C41.3084 48.9027 41.2728 49.149 41.2881 49.3948C41.2798 49.6375 41.3201 49.8796 41.4062 50.1067C41.4923 50.3339 41.6226 50.5416 41.7898 50.7179C41.9569 50.8942 42.1571 51.0354 42.3794 51.1334C42.6017 51.2314 42.8415 51.2842 43.0844 51.2886Z" fill="white"/>
<path d="M46.6833 51.1768H47.3822C47.9872 50.057 48.2974 48.8016 48.2837 47.5288L48.3397 46.2779H52.4072V51.1698H53.2528V53.5809H51.9179V52.5116H48.0531V53.5809H46.7113L46.6833 51.1768ZM48.9266 51.1768H50.9536V47.6127H49.689L49.5907 48.668C49.5304 49.5388 49.305 50.3902 48.9266 51.1768Z" fill="white"/>
<path d="M55.6287 48.2347C55.8523 48.2347 56.0479 48.1997 56.1876 48.1997C57.7181 48.1997 58.4589 49.0314 58.4589 50.2963C58.4589 51.5612 57.5291 52.5326 55.8798 52.5326H54.203V46.2779H55.6007L55.6287 48.2347ZM55.6287 49.5835V51.1698C55.7894 51.1698 55.9149 51.2048 56.0477 51.2048C56.1669 51.2229 56.2885 51.2132 56.4033 51.1764C56.5181 51.1397 56.6231 51.077 56.7097 50.9931C56.7963 50.9092 56.8625 50.8065 56.9029 50.6929C56.9432 50.5793 56.9567 50.4579 56.9424 50.3382C56.9424 49.7861 56.5855 49.5415 56.0614 49.5415C55.9163 49.5422 55.772 49.5539 55.6287 49.5765V49.5835ZM59.0595 46.2849H60.4572V52.5256H59.0595V46.2849Z" fill="white"/>
<path d="M62.0933 46.2779H65.7902V47.6127H63.5326V48.7099H65.5384V50.0447H63.5326V51.1768H65.8946V52.5186H62.1069L62.0933 46.2779Z" fill="white"/>
<path d="M3.60627 56.3763H1.42578V61.2683H0.0280762V55.0345H5.05994V61.2683H3.66224L3.60627 56.3763Z" fill="white"/>
<path d="M6.63953 61.2753V55.0415H8.54772C10.4416 55.0415 11.0633 56.0339 11.0633 57.1381C11.0648 57.4319 11.0048 57.7229 10.8865 57.9919C10.7683 58.261 10.5949 58.5022 10.3774 58.6999C10.16 58.8976 9.90306 59.0473 9.62398 59.1395C9.34489 59.2316 9.04965 59.264 8.75724 59.2346C8.52445 59.2471 8.29117 59.2471 8.05839 59.2346V61.3312L6.63953 61.2753ZM8.03723 56.3833V57.781C8.25275 57.8089 8.46962 57.8229 8.68694 57.8229C8.79389 57.8373 8.90332 57.828 9.00634 57.7959C9.10936 57.7638 9.20355 57.7096 9.28342 57.637C9.3633 57.5645 9.42654 57.4754 9.46837 57.3759C9.51021 57.2764 9.52971 57.169 9.5257 57.0612C9.5257 56.5091 9.1698 56.3623 8.65964 56.3623L8.03723 56.3833Z" fill="white"/>
<path d="M15.0957 54.9367C15.5304 54.908 15.9659 54.9709 16.3747 55.1214C16.7835 55.2719 17.1564 55.5067 17.4687 55.8104C17.781 56.1141 18.0262 56.4801 18.188 56.8846C18.3498 57.2891 18.4244 57.723 18.4078 58.1584C18.4158 58.5917 18.335 59.0221 18.1703 59.4231C18.0056 59.824 17.7607 60.1869 17.4503 60.4895C17.1399 60.792 16.7708 61.0277 16.3658 61.1821C15.9608 61.3365 15.5287 61.4062 15.0957 61.3871C14.6601 61.4158 14.223 61.3526 13.8134 61.2018C13.4037 61.0509 13.0303 60.8156 12.7173 60.5112C12.4044 60.2069 12.1588 59.8401 11.9966 59.4348C11.8344 59.0295 11.7596 58.5946 11.7762 58.1584C11.767 57.7244 11.8468 57.2932 12.0116 56.8917C12.1765 56.4901 12.4222 56.1269 12.7337 55.8246C13.0452 55.5223 13.416 55.2874 13.8222 55.1346C14.2285 54.9819 14.6622 54.9145 15.0957 54.9367ZM15.0957 60.0453C15.3424 60.0564 15.588 60.0144 15.8171 59.9222C16.0462 59.83 16.2529 59.6898 16.4231 59.511C16.5934 59.3321 16.7232 59.1188 16.804 58.8855C16.8847 58.6521 16.9146 58.4042 16.8913 58.1584C16.9066 57.9126 16.8718 57.6663 16.7883 57.4347C16.7048 57.2031 16.5747 56.991 16.4061 56.8115C16.2375 56.6321 16.0335 56.4891 15.8075 56.3913C15.5816 56.2936 15.3379 56.2431 15.0916 56.2431C14.8454 56.2431 14.6024 56.2936 14.3764 56.3913C14.1504 56.4891 13.9465 56.6321 13.7779 56.8115C13.6093 56.991 13.4792 57.2031 13.3957 57.4347C13.3122 57.6663 13.2773 57.9126 13.2926 58.1584C13.2842 58.4014 13.3241 58.6436 13.4107 58.8709C13.4973 59.0981 13.6283 59.3057 13.7963 59.4815C13.9643 59.6573 14.1663 59.7977 14.3894 59.8946C14.6124 59.9914 14.8526 60.0426 15.0957 60.0453Z" fill="white"/>
<path d="M21.8046 60.5135C20.1343 60.5135 19.0092 59.633 19.0092 58.0675C19.0092 56.5021 20.1413 55.6705 21.8046 55.6285V54.9716H23.2023V55.6285C24.8236 55.6285 25.9977 56.544 25.9977 58.0675C25.9977 59.591 24.8655 60.4925 23.2023 60.5135V61.3521H21.8046V60.5135ZM21.8046 59.1997V56.9354C20.8961 56.9354 20.5468 57.4665 20.5468 58.0675C20.5468 58.7943 20.903 59.1857 21.8046 59.1997ZM23.2023 56.9354V59.1997C24.1387 59.1997 24.4744 58.8013 24.4744 58.0675C24.5023 57.4805 24.1807 56.9633 23.2302 56.9354H23.2023Z" fill="white"/>
<path d="M27.087 55.0415H30.784V56.3763H28.5127V57.4735H30.5185V58.8083H28.5127V59.9404H30.8748V61.2753H27.087V55.0415Z" fill="white"/>
<path d="M37.0677 60.6602C36.5051 61.1464 35.7765 61.3968 35.0339 61.3591C34.601 61.3862 34.1674 61.3216 33.7611 61.1695C33.3549 61.0174 32.9854 60.7812 32.6767 60.4764C32.368 60.1717 32.127 59.8052 31.9696 59.4009C31.8123 58.9966 31.742 58.5637 31.7635 58.1304C31.7351 57.6964 31.8007 57.2613 31.9553 56.8547C32.1099 56.4481 32.3501 56.0795 32.6596 55.7739C32.9692 55.4684 33.3403 55.2329 33.7488 55.0837C34.1574 54.9344 34.5935 54.8747 35.0271 54.9087C35.7218 54.8806 36.4023 55.1123 36.9353 55.5586L36.2992 56.6279C35.9256 56.3705 35.4807 56.2362 35.0271 56.2435C34.7839 56.2373 34.5422 56.2829 34.318 56.3775C34.0938 56.472 33.8923 56.6133 33.727 56.7918C33.5617 56.9704 33.4362 57.1821 33.3591 57.4129C33.2821 57.6438 33.2551 57.8883 33.28 58.1304C33.268 58.3814 33.3088 58.6321 33.3994 58.8664C33.49 59.1008 33.6285 59.3136 33.8062 59.4912C33.9838 59.6689 34.1963 59.8075 34.4306 59.8981C34.665 59.9887 34.9161 60.0293 35.167 60.0173C35.6561 60.0158 36.1312 59.8565 36.5224 59.563L37.0677 60.6602Z" fill="white"/>
<path d="M42.6374 60.6602C42.0748 61.1464 41.3469 61.3968 40.6043 61.3591C40.1714 61.3862 39.7371 61.3216 39.3308 61.1695C38.9246 61.0174 38.5551 60.7812 38.2464 60.4764C37.9377 60.1717 37.6967 59.8052 37.5393 59.4009C37.382 58.9966 37.3117 58.5637 37.3332 58.1304C37.3048 57.6964 37.3704 57.2613 37.525 56.8547C37.6796 56.4481 37.9198 56.0795 38.2293 55.7739C38.5389 55.4684 38.9107 55.2329 39.3192 55.0837C39.7278 54.9344 40.1632 54.8747 40.5968 54.9087C41.2891 54.8823 41.967 55.1139 42.4982 55.5586L41.8689 56.6279C41.4947 56.3718 41.0502 56.2376 40.5968 56.2435C40.3536 56.2373 40.1119 56.2829 39.8877 56.3775C39.6635 56.472 39.462 56.6133 39.2967 56.7918C39.1314 56.9704 39.0059 57.1821 38.9289 57.4129C38.8518 57.6438 38.8248 57.8883 38.8497 58.1304C38.8377 58.3814 38.8785 58.6321 38.9691 58.8664C39.0597 59.1008 39.1982 59.3136 39.3759 59.4912C39.5535 59.6689 39.7667 59.8075 40.001 59.8981C40.2354 59.9887 40.4858 60.0293 40.7367 60.0173C41.2258 60.0158 41.7016 59.8565 42.0928 59.563L42.6374 60.6602Z" fill="white"/>
<path d="M43.6151 61.2753V55.0415H45.0128V58.9201L47.7734 55.0415H49.0176V61.2753H47.6199V57.4036L44.8593 61.2753H43.6151Z" fill="white"/>
<path d="M53.5182 54.9366C53.9535 54.9069 54.3902 54.9691 54.7999 55.1192C55.2095 55.2692 55.5829 55.5038 55.8959 55.8076C56.209 56.1115 56.4551 56.4778 56.6173 56.8828C56.7795 57.2878 56.8544 57.7224 56.8377 58.1583C56.8459 58.5923 56.7647 59.0234 56.5996 59.4248C56.4344 59.8262 56.1887 60.1894 55.8775 60.4921C55.5664 60.7947 55.1969 61.0303 54.791 61.1842C54.3852 61.3382 53.9518 61.4072 53.5182 61.387C53.0831 61.4147 52.6474 61.3508 52.2386 61.1995C51.8297 61.0482 51.4567 60.8128 51.1446 60.5085C50.8324 60.2042 50.5877 59.8378 50.4259 59.433C50.2642 59.0282 50.189 58.594 50.2055 58.1583C50.1963 57.725 50.2765 57.2944 50.4409 56.8934C50.6054 56.4923 50.8509 56.1294 51.1616 55.8272C51.4723 55.525 51.842 55.29 52.2474 55.1368C52.6529 54.9836 53.0853 54.9155 53.5182 54.9366ZM53.5182 60.0452C53.7654 60.0574 54.0124 60.0162 54.2423 59.9245C54.4722 59.8328 54.6801 59.6927 54.8511 59.5137C55.0221 59.3347 55.1521 59.1211 55.2333 58.8872C55.3144 58.6534 55.3446 58.4048 55.3213 58.1583C55.3366 57.9126 55.3017 57.6663 55.2182 57.4347C55.1347 57.203 55.0047 56.991 54.8361 56.8115C54.6674 56.6321 54.4635 56.4891 54.2375 56.3913C54.0115 56.2936 53.7678 56.2431 53.5216 56.2431C53.2754 56.2431 53.0317 56.2936 52.8057 56.3913C52.5797 56.4891 52.3765 56.6321 52.2079 56.8115C52.0392 56.991 51.9092 57.203 51.8257 57.4347C51.7422 57.6663 51.7066 57.9126 51.7219 58.1583C51.7135 58.4008 51.7539 58.6425 51.84 58.8692C51.9262 59.096 52.057 59.3033 52.2242 59.479C52.3915 59.6547 52.5916 59.7953 52.8139 59.8925C53.0361 59.9898 53.2756 60.0417 53.5182 60.0452Z" fill="white"/>
<path d="M61.6948 58.7664H59.4167V61.2753H58.019V55.0415H59.4167V57.4316H61.6948V55.0415H63.0925V61.2753H61.6948V58.7664Z" fill="white"/>
<path d="M66.5092 55.0415H67.7882L70.3809 61.2753H68.8576L68.3403 59.9684H65.8663L65.349 61.2753H63.9165L66.5092 55.0415ZM66.4048 58.6336H67.8025L67.1036 56.8655L66.4048 58.6336Z" fill="white"/>
<path d="M74.7142 56.3763H73.3165L73.1834 57.5504C72.8061 60.8419 72.0233 61.5198 70.5627 61.2752V59.8775C71.0799 59.9684 71.6113 59.7727 71.8629 56.3134L71.9536 55.0694H76.0839V61.3032H74.6862L74.7142 56.3763Z" fill="white"/>
<path d="M79.1377 56.9913C79.3209 56.9684 79.5053 56.9568 79.6898 56.9563C81.2203 56.9563 81.9611 57.788 81.9611 59.0529C81.9611 60.3178 81.0313 61.2892 79.382 61.2892C78.7461 61.2892 78.0754 61.2892 77.712 61.2892V55.0555H79.1097L79.1377 56.9913ZM79.1377 58.3401V59.9265C79.2985 59.9265 79.424 59.9614 79.5568 59.9614C79.6757 59.9798 79.7977 59.9702 79.9123 59.9335C80.0269 59.8967 80.1313 59.8339 80.2174 59.7498C80.3035 59.6657 80.3683 59.5628 80.4078 59.4491C80.4473 59.3355 80.4602 59.2142 80.4447 59.0948C80.4447 58.5427 80.0884 58.2912 79.5643 58.2912C79.4211 58.2967 79.2784 58.3131 79.1377 58.3401ZM82.5692 55.0415H83.9669V61.2753H82.5692V55.0415Z" fill="white"/>
<path d="M20.0292 39.9603L25.781 1.35577L42.071 15.7241L58.3616 1.35577L64.1127 39.9603H64.8048L58.8577 0L42.071 14.8017L25.2849 0L19.3303 39.9603H20.0292Z" fill="white"/>
<path d="M22.3354 39.9602L27.2553 4.74515L42.0711 17.0309L56.8657 4.74515L61.7925 39.9602H62.4913L57.3762 3.42432L42.0711 16.1364L26.7455 3.42432L21.644 39.9602H22.3354Z" fill="white"/>
<path d="M24.6421 39.9603L28.7369 8.12763L42.0711 18.3448L55.3704 8.12763L59.4727 39.9603H60.1716L55.9014 6.85571L42.0711 17.4783L28.206 6.85571L23.9501 39.9603H24.6421Z" fill="white"/>
<path d="M26.9481 39.9603L30.2117 11.5031L42.071 19.6517L53.875 11.5031L57.1591 39.9603H57.8511L54.4272 10.2941L42.071 18.8131L29.6596 10.2871L26.2561 39.9603H26.9481Z" fill="white"/>
<path d="M29.2542 39.9603L31.6933 14.8785L42.071 20.9585L52.379 14.8716L54.8393 39.9603H55.5307L52.9591 13.7394L42.071 20.1549L31.12 13.7324L28.5621 39.9603H29.2542Z" fill="white"/>
<path d="M31.5534 39.9603L33.1817 18.2331L42.0709 22.2584L50.8769 18.2261L52.5121 39.9603H53.2041L51.4843 17.1988L42.0709 21.5037L32.5668 17.1918L30.8682 39.9603H31.5534Z" fill="white"/>
<path d="M33.8594 39.9603L34.6702 21.5666L42.0709 23.5583L49.3672 21.5596L50.1916 39.9603H50.8836L50.0169 20.6721L42.0709 22.8455L34.0204 20.6721L33.1674 39.9603H33.8594Z" fill="white"/>
<path d="M36.1587 39.9603V24.8721H47.8645V39.9603H48.5497V24.1802H35.4667V39.9603H36.1587Z" fill="white"/>
</svg>
