<svg width="28" height="28" viewBox="0 0 28 28" fill="none" xmlns="http://www.w3.org/2000/svg">
<circle cx="14" cy="14" r="13.5" fill="#00A1D5" stroke="#00A1D5"/>
<path d="M13.9999 23C13.8765 23 13.7617 22.9365 13.6961 22.8319C13.4697 22.4706 8.15063 13.9492 8.15063 10.8493C8.15063 7.62398 10.7746 5 13.9999 5C17.2252 5 19.8492 7.62398 19.8492 10.8493C19.8492 13.9492 14.5302 22.4706 14.3037 22.8319C14.2382 22.9365 14.1234 23 13.9999 23ZM13.9999 5.71713C11.17 5.71713 8.86777 8.01941 8.86777 10.8493C8.86777 12.03 9.80183 14.4024 11.5689 17.7101C12.5395 19.5266 13.5196 21.1682 13.9999 21.9571C14.4803 21.1682 15.4603 19.5266 16.4309 17.7101C18.198 14.4024 19.1321 12.03 19.1321 10.8493C19.1321 8.01941 16.8298 5.71713 13.9999 5.71713ZM13.9999 13.9348C12.2986 13.9348 10.9144 12.5506 10.9144 10.8493C10.9144 9.14796 12.2986 7.76379 13.9999 7.76379C15.7012 7.76379 17.0854 9.14792 17.0854 10.8493C17.0854 12.5506 15.7012 13.9348 13.9999 13.9348ZM13.9999 8.48092C12.694 8.48092 11.6316 9.54335 11.6316 10.8493C11.6316 12.1552 12.694 13.2176 13.9999 13.2176C15.3059 13.2176 16.3683 12.1552 16.3683 10.8493C16.3683 9.54335 15.3059 8.48092 13.9999 8.48092Z" fill="white"/>
</svg>
