<svg width="48" height="48" viewBox="0 0 48 48" fill="none" xmlns="http://www.w3.org/2000/svg">
<circle cx="24" cy="24" r="23.5" transform="rotate(180 24 24)" stroke="#6DBEDF"/>
<g clip-path="url(#clip0_0_3)">
<path d="M20.4877 32.7603L28.6695 24.5783C28.8229 24.4249 28.9091 24.2168 28.9091 23.9998C28.9091 23.7827 28.8229 23.5747 28.6694 23.4212L20.4876 15.2396C20.1681 14.9201 19.6501 14.9201 19.3305 15.2396C19.0111 15.5591 19.011 16.0772 19.3305 16.3967L26.9338 23.9998L19.3305 31.6032C19.1708 31.763 19.0909 31.9724 19.0909 32.1818C19.0909 32.3912 19.1708 32.6006 19.3306 32.7604C19.6501 33.0798 20.1681 33.0798 20.4877 32.7603Z" fill="#6DBEDF"/>
</g>
<defs>
<clipPath id="clip0_0_3">
<rect width="18" height="18" fill="white" transform="translate(33 15) rotate(90)"/>
</clipPath>
</defs>
</svg>
