<svg width="48" height="48" viewBox="0 0 48 48" fill="none" xmlns="http://www.w3.org/2000/svg">
<circle cx="24" cy="24" r="23.5" stroke="#6DBEDF"/>
<g clip-path="url(#clip0_316_6)">
<path d="M27.5123 15.2397L19.3305 23.4217C19.1771 23.5751 19.0909 23.7832 19.0909 24.0002C19.0909 24.2172 19.1771 24.4253 19.3306 24.5788L27.5124 32.7604C27.8319 33.0799 28.3499 33.0799 28.6694 32.7604C28.9889 32.4409 28.989 31.9228 28.6694 31.6033L21.0662 24.0002L28.6694 16.3967C28.8292 16.237 28.9091 16.0276 28.9091 15.8182C28.9091 15.6088 28.8292 15.3994 28.6694 15.2396C28.3499 14.9201 27.8318 14.9201 27.5123 15.2397Z" fill="#6DBEDF"/>
</g>
<defs>
<clipPath id="clip0_316_6">
<rect width="18" height="18" fill="white" transform="translate(15 33) rotate(-90)"/>
</clipPath>
</defs>
</svg>
