<svg width="28" height="28" viewBox="0 0 28 28" fill="none" xmlns="http://www.w3.org/2000/svg">
<circle cx="14" cy="14" r="13.5" fill="#323852" stroke="#323852"/>
<path d="M14 23C13.8766 23 13.7617 22.9365 13.6962 22.8319C13.4698 22.4706 8.15073 13.9492 8.15073 10.8493C8.15073 7.62398 10.7747 5 14 5C17.2253 5 19.8493 7.62398 19.8493 10.8493C19.8493 13.9492 14.5303 22.4706 14.3038 22.8319C14.2383 22.9365 14.1235 23 14 23ZM14 5.71713C11.1701 5.71713 8.86786 8.01941 8.86786 10.8493C8.86786 12.03 9.80192 14.4024 11.569 17.7101C12.5396 19.5266 13.5197 21.1682 14 21.9571C14.4803 21.1682 15.4604 19.5266 16.431 17.7101C18.1981 14.4024 19.1322 12.03 19.1322 10.8493C19.1322 8.01941 16.8299 5.71713 14 5.71713ZM14 13.9348C12.2987 13.9348 10.9145 12.5506 10.9145 10.8493C10.9145 9.14796 12.2987 7.76379 14 7.76379C15.7013 7.76379 17.0855 9.14792 17.0855 10.8493C17.0855 12.5506 15.7013 13.9348 14 13.9348ZM14 8.48092C12.6941 8.48092 11.6316 9.54335 11.6316 10.8493C11.6316 12.1552 12.6941 13.2176 14 13.2176C15.3059 13.2176 16.3684 12.1552 16.3684 10.8493C16.3684 9.54335 15.3059 8.48092 14 8.48092Z" fill="white"/>
</svg>
