<svg width="14" height="16" viewBox="0 0 14 16" fill="none" xmlns="http://www.w3.org/2000/svg">
<path d="M7 0.4375C4.35027 0.4375 2.1875 2.60027 2.1875 5.25C2.1875 6.90608 3.03392 8.37958 4.31445 9.24609C1.86205 10.2979 0.125 12.7309 0.125 15.5625H1.5C1.5 12.5164 3.95392 10.0625 7 10.0625C10.0461 10.0625 12.5 12.5164 12.5 15.5625H13.875C13.875 12.7309 12.138 10.2979 9.68555 9.24609C10.9661 8.37958 11.8125 6.90608 11.8125 5.25C11.8125 2.60027 9.64973 0.4375 7 0.4375ZM7 1.8125C8.90662 1.8125 10.4375 3.34338 10.4375 5.25C10.4375 7.15662 8.90662 8.6875 7 8.6875C5.09338 8.6875 3.5625 7.15662 3.5625 5.25C3.5625 3.34338 5.09338 1.8125 7 1.8125Z" fill="white"/>
</svg>
