<svg width="28" height="28" viewBox="0 0 28 28" fill="none" xmlns="http://www.w3.org/2000/svg">
<circle cx="14" cy="14" r="13.5" fill="#323852" stroke="#323852"/>
<g clip-path="url(#clip0_323_10)">
<path d="M14.6954 21C14.6714 21 14.6472 20.999 14.6228 20.9969C14.2731 20.9669 13.9918 20.7276 13.906 20.3873L12.6764 15.507C12.6537 15.4166 12.5834 15.3463 12.493 15.3236L7.61271 14.094C7.27237 14.0083 7.03311 13.7269 7.00315 13.3772C6.97317 13.0276 7.16104 12.7096 7.4818 12.5672L19.8595 7.07073C20.1684 6.93354 20.5226 6.99934 20.7616 7.23841C21.0007 7.47748 21.0665 7.83157 20.9293 8.14056L15.4328 20.5182C15.3003 20.8166 15.0159 21 14.6954 21ZM14.4469 20.251C14.4878 20.4131 14.6283 20.4375 14.6704 20.4411C14.7125 20.4448 14.8552 20.4446 14.9231 20.2918L20.4195 7.91415C20.4848 7.767 20.396 7.66161 20.3672 7.63283C20.3384 7.60404 20.233 7.51516 20.0859 7.58053L7.70815 13.077C7.55537 13.1449 7.55529 13.2875 7.55889 13.3296C7.56248 13.3717 7.58686 13.5123 7.74898 13.5532L12.6293 14.7827C12.919 14.8557 13.1443 15.081 13.2173 15.3707L14.4469 20.251Z" fill="white"/>
<path d="M9.5661 13.2606C9.4592 13.2606 9.35724 13.1988 9.31105 13.0948C9.24855 12.954 9.312 12.7892 9.45276 12.7267L15.6722 9.96495C15.8131 9.90253 15.9778 9.96589 16.0403 10.1067C16.1028 10.2474 16.0394 10.4122 15.8986 10.4747L9.67914 13.2365C9.64235 13.2528 9.60392 13.2606 9.5661 13.2606Z" fill="white"/>
<path d="M17.2916 9.82986C17.1847 9.82986 17.0827 9.76805 17.0365 9.66408C16.974 9.52329 17.0374 9.35852 17.1782 9.29599L18.6285 8.65196C18.7694 8.58954 18.9341 8.65291 18.9966 8.79367C19.0591 8.93445 18.9957 9.09923 18.8549 9.16176L17.4046 9.80579C17.3678 9.82208 17.3294 9.82986 17.2916 9.82986Z" fill="white"/>
</g>
<defs>
<clipPath id="clip0_323_10">
<rect width="14" height="14" fill="white" transform="translate(7 7)"/>
</clipPath>
</defs>
</svg>
