<svg width="28" height="28" viewBox="0 0 28 28" fill="none" xmlns="http://www.w3.org/2000/svg">
<circle cx="14" cy="14" r="13.5" fill="#00A1D5" stroke="#00A1D5"/>
<path d="M9.30371 20.8553C9.30371 21.4865 9.7818 22 10.3695 22H17.6304C18.2181 22 18.6962 21.4865 18.6962 20.8553V7.14467C18.6962 6.5135 18.2181 6 17.6304 6H10.3695C9.7818 6 9.30371 6.5135 9.30371 7.14467V20.8553ZM9.94116 8.48755H18.0587V18.1248H9.94116V8.48755ZM9.94116 7.14467C9.94116 6.86499 10.1333 6.63745 10.3695 6.63745H17.6304C17.8666 6.63745 18.0587 6.86499 18.0587 7.14467V7.8501H9.94116V7.14467ZM18.0587 20.8553C18.0587 21.135 17.8666 21.3626 17.6304 21.3626H10.3695C10.1333 21.3626 9.94116 21.135 9.94116 20.8553V18.7623H18.0587V20.8553Z" fill="white"/>
<path d="M13.9999 20.9427C14.4945 20.9427 14.8968 20.5404 14.8968 20.0458C14.8968 19.5513 14.4945 19.1489 13.9999 19.1489C13.5054 19.1489 13.103 19.5513 13.103 20.0458C13.103 20.5404 13.5054 20.9427 13.9999 20.9427ZM13.9999 19.7864C14.143 19.7864 14.2594 19.9028 14.2594 20.0459C14.2594 20.1889 14.143 20.3053 13.9999 20.3053C13.8568 20.3053 13.7405 20.1889 13.7405 20.0459C13.7405 19.9028 13.8569 19.7864 13.9999 19.7864Z" fill="white"/>
<path d="M14.2972 6.95801H13.7025C13.5265 6.95801 13.3838 7.10073 13.3838 7.27673C13.3838 7.45273 13.5265 7.59546 13.7025 7.59546H14.2972C14.4732 7.59546 14.6159 7.45273 14.6159 7.27673C14.6159 7.10073 14.4732 6.95801 14.2972 6.95801Z" fill="white"/>
<path d="M10.8614 11.2861C10.6854 11.2861 10.5427 11.4289 10.5427 11.6049V17.2213C10.5427 17.3973 10.6854 17.54 10.8614 17.54C11.0375 17.54 11.1802 17.3973 11.1802 17.2213V11.6049C11.1802 11.4288 11.0375 11.2861 10.8614 11.2861Z" fill="white"/>
<path d="M10.8614 9.13867C10.6854 9.13867 10.5427 9.2814 10.5427 9.4574V10.3164C10.5427 10.4924 10.6854 10.6351 10.8614 10.6351C11.0375 10.6351 11.1802 10.4924 11.1802 10.3164V9.4574C11.1802 9.28137 11.0375 9.13867 10.8614 9.13867Z" fill="white"/>
</svg>
