<svg width="84" height="83" viewBox="0 0 84 83" fill="none" xmlns="http://www.w3.org/2000/svg">
<path d="M28.4685 74.3983L29.6077 74.7887L28.494 77.994L31.9681 75.5746L33.041 75.9444L31.3346 80.9169L30.2055 80.5624L31.3142 77.3314L27.8451 79.7457L26.762 79.3706L28.4685 74.3983Z" fill="#306EE2"/>
<path d="M39.1463 77.1512C39.449 77.3268 39.6941 77.5875 39.8513 77.9011C39.9991 78.2219 40.0522 78.5784 40.0046 78.9286C39.9723 79.2842 39.8354 79.6223 39.6112 79.8994C39.3869 80.1678 39.088 80.3626 38.7528 80.4593C38.3547 80.5737 37.937 80.6036 37.5267 80.5466L36.505 80.4182L36.3312 81.8564L35.1305 81.7126L35.7539 76.4885L38.0019 76.7608C38.4063 76.8093 38.796 76.9423 39.1463 77.1512ZM38.4259 79.432C38.5314 79.3612 38.619 79.267 38.6819 79.1565C38.7449 79.0458 38.7814 78.9222 38.7886 78.7949C38.8118 78.6694 38.8058 78.5401 38.7712 78.4172C38.7367 78.2943 38.6745 78.181 38.5895 78.0861C38.3677 77.8893 38.0875 77.772 37.7923 77.7522L36.8114 77.6341L36.5969 79.4473L37.5778 79.5655C37.8673 79.6229 38.1677 79.5755 38.4259 79.432Z" fill="#306EE2"/>
<path d="M47.198 76.5149L47.7549 81.7493L46.5593 81.8777L46.1047 77.6296L43.7597 77.8864L44.2092 82.1293L43.0136 82.2578L42.4568 77.0286L47.198 76.5149Z" fill="#306EE2"/>
<path d="M52.4852 80.2799C52.0119 80.2131 51.5663 80.0158 51.1979 79.7097C50.8225 79.3969 50.5396 78.9864 50.3805 78.5231C50.213 78.0631 50.1723 77.5661 50.2629 77.0849C50.3596 76.6128 50.5822 76.1759 50.9066 75.8212C51.257 75.4499 51.6891 75.1667 52.1684 74.9946C52.6477 74.8223 53.1606 74.7658 53.6654 74.8297C54.1395 74.8999 54.5858 75.0968 54.958 75.4C55.3344 75.7119 55.6174 76.1226 55.7756 76.5866C55.9462 77.046 55.9851 77.5443 55.888 78.0248C55.7931 78.4966 55.5722 78.9334 55.2493 79.2884C54.9036 79.6654 54.4698 79.9497 53.9874 80.1155C53.5087 80.2978 52.9917 80.3545 52.4852 80.2799ZM54.3603 78.6566C54.5431 78.4394 54.6647 78.1768 54.7128 77.8964C54.7579 77.5955 54.7263 77.288 54.6209 77.0026C54.5189 76.7119 54.3428 76.4532 54.1099 76.2527C53.8966 76.0628 53.6347 75.9364 53.3538 75.8879C53.0656 75.8364 52.7688 75.8648 52.4955 75.9702C52.2186 76.0644 51.9718 76.231 51.7802 76.453C51.5937 76.6678 51.4714 76.9314 51.4277 77.2133C51.3788 77.5137 51.4086 77.8218 51.5146 78.1071C51.6184 78.3968 51.7943 78.655 52.0256 78.857C52.2383 79.0447 52.498 79.1708 52.7765 79.2217C53.0648 79.2708 53.3609 79.2424 53.6349 79.1395C53.9144 79.045 54.1645 78.8785 54.3603 78.6566Z" fill="#306EE2"/>
<path d="M41.471 15.4381C25.6688 15.4381 12.8605 28.0231 12.8605 43.5464C12.8605 59.0696 25.6688 71.6547 41.471 71.6547C57.2732 71.6547 70.0815 59.0696 70.0815 43.5464C70.0815 28.0231 57.2732 15.4381 41.471 15.4381ZM41.471 65.8964C28.9079 65.8964 18.7206 55.89 18.7206 43.5464C18.7206 31.2027 28.9079 21.1964 41.471 21.1964C54.034 21.1964 64.2164 31.2027 64.2164 43.5464C64.2164 55.89 54.034 65.8964 41.471 65.8964Z" fill="#306EE2"/>
<path d="M70.0566 53.5686C69.7058 54.2071 69.4942 54.9135 69.4361 55.6407C69.3779 56.3679 69.4745 57.0992 69.7194 57.7859C70.2609 59.3783 71.2521 60.5956 72.6111 61.0374C73.1437 60.4245 73.4834 59.6666 73.5869 58.8595C73.7387 58.0299 73.6735 57.175 73.3979 56.3784C73.1346 55.6567 72.6874 55.0175 72.101 54.5243C71.5146 54.0311 70.8095 53.7015 70.0566 53.5686Z" fill="#306EE2"/>
<path d="M80.4435 57.4057C80.2585 58.3282 79.8608 59.194 79.2822 59.9337C78.7037 60.6733 77.9604 61.266 77.1124 61.6641C76.4109 62.0178 75.6206 62.1539 74.8418 62.0552C74.0632 61.9563 73.3313 61.6271 72.7391 61.1093C73.045 60.364 73.4638 59.6709 73.9805 59.0547C74.57 58.415 75.2737 57.8922 76.0549 57.5136C77.5977 56.6609 79.2889 56.6044 80.4435 57.4057Z" fill="#306EE2"/>
<path d="M67.8285 58.402C67.3626 58.9122 67.0445 59.5411 66.909 60.2204C66.6841 60.9533 66.6282 61.7279 66.7455 62.4857C67.0061 64.1501 67.8235 65.5678 69.0649 66.215C69.6631 65.6758 70.1164 64.9939 70.3832 64.2322C70.7027 63.4426 70.7793 62.5747 70.6029 61.7409C70.476 60.9872 70.1523 60.2808 69.6648 59.6942C69.1775 59.1075 68.5437 58.6616 67.8285 58.402Z" fill="#306EE2"/>
<path d="M77.3934 64.0115C77.0408 64.8664 76.5194 65.6405 75.8607 66.287C75.14 66.9047 74.2919 67.3539 73.3776 67.602C72.6321 67.8336 71.8343 67.8344 71.0882 67.6045C70.3422 67.3746 69.6819 66.9245 69.1934 66.3128C69.5774 65.6076 70.0986 64.9874 70.7261 64.4891C71.4256 63.979 72.1994 63.5805 73.02 63.3077C74.7163 62.7735 76.3971 63.02 77.3934 64.0115Z" fill="#306EE2"/>
<path d="M64.7993 62.8047C63.7163 63.5855 63.1338 65.0237 63.0164 66.6316C62.8988 68.2393 63.5579 69.8574 64.6563 70.705C65.3603 70.2719 65.9406 69.663 66.3407 68.9374C66.7411 68.2118 66.9474 67.3944 66.94 66.5647C66.95 65.8029 66.7567 65.0522 66.3801 64.3909C66.0037 63.7296 65.4579 63.1818 64.7993 62.8047Z" fill="#306EE2"/>
<path d="M73.2552 70.0012C72.7591 70.7974 72.085 71.4662 71.2869 71.9549C70.4887 72.4436 69.5884 72.7385 68.6571 72.8162C67.8824 72.913 67.0966 72.7746 66.4008 72.4184C65.7052 72.0624 65.1314 71.5048 64.7537 70.8179C65.8489 69.5332 67.3883 68.7144 69.0607 68.527C70.8334 68.3112 72.448 68.8557 73.2552 70.0012Z" fill="#306EE2"/>
<path d="M61.0086 66.6411C60.395 66.9508 59.8681 67.41 59.4761 67.9767C59.0665 68.6223 58.7677 69.3325 58.5922 70.0776C58.3971 70.8082 58.3765 71.5745 58.5319 72.3145C58.6872 73.0545 59.0142 73.7471 59.4862 74.3361C60.262 74.0561 60.9471 73.5684 61.4676 72.9257C61.9879 72.2829 62.3239 71.5096 62.4392 70.6889C62.5833 69.9473 62.5266 69.1802 62.275 68.4681C62.0233 67.7561 61.5859 67.1251 61.0086 66.6411Z" fill="#306EE2"/>
<path d="M68.0691 75.1528C67.4413 75.8261 66.6738 76.3523 65.8211 76.6938C64.9633 77.0817 64.0157 77.2238 63.0827 77.1049C61.2076 76.884 60.0173 75.7846 59.5829 74.4492C60.1903 73.918 60.9103 73.5331 61.6879 73.3242C62.4925 73.0329 63.348 72.9105 64.2015 72.9646C66.005 73.1136 67.4407 73.884 68.0691 75.1528Z" fill="#306EE2"/>
<path d="M71.3495 48.2823C71.1286 48.9294 71.0316 49.6126 71.0633 50.296C71.1379 51.0715 71.3747 51.8224 71.7582 52.4995C72.0675 53.186 72.536 53.7876 73.1246 54.2542C73.7132 54.7209 74.4043 55.0386 75.1403 55.181C75.5432 54.4577 75.7513 53.6414 75.7441 52.8126C75.737 51.9838 75.5148 51.1711 75.0995 50.4551C74.7208 49.7924 74.1743 49.2423 73.5156 48.8608C72.857 48.4791 72.1097 48.2795 71.3495 48.2823Z" fill="#306EE2"/>
<path d="M82.257 50.2549C82.2548 51.1912 82.0082 52.1104 81.5417 52.9208C81.1058 53.7578 80.4833 54.4822 79.723 55.0371C78.1135 56.0646 76.4684 56.0081 75.2934 55.2529C75.6297 53.5912 76.5672 52.1141 77.9245 51.1076C79.3704 50.0134 80.9286 49.6436 82.257 50.2549Z" fill="#306EE2"/>
<path d="M71.8494 42.94C71.6721 43.6151 71.6846 44.3264 71.8852 44.9948C72.1133 45.7306 72.4584 46.4244 72.9069 47.0495C73.3374 47.6722 73.9087 48.1833 74.574 48.5405C75.2394 48.8977 75.9796 49.0909 76.7337 49.1041C76.9876 48.3388 77.061 47.5247 76.9482 46.7258C76.7772 45.8894 76.4013 45.1091 75.8549 44.4554C75.3848 43.8638 74.7643 43.4106 74.0595 43.1439C73.3544 42.8773 72.5909 42.8068 71.8494 42.94Z" fill="#306EE2"/>
<path d="M82.9103 42.9659C83.0585 44.7381 82.6243 46.8134 81.1835 48.1028C79.7428 49.392 78.1844 49.6438 76.892 49.0992C76.8824 48.2845 77.0571 47.4784 77.4028 46.7414C77.7046 45.9298 78.163 45.1861 78.7516 44.5533C79.9726 43.2484 81.5668 42.6166 82.9103 42.9659Z" fill="#306EE2"/>
<path d="M71.2928 37.783C71.2578 38.4747 71.4133 39.1626 71.7424 39.771C72.0435 40.4746 72.4933 41.1039 73.0606 41.6152C74.2867 42.7246 75.8859 43.2743 77.2295 42.9713C77.3236 42.1685 77.2326 41.3547 76.9638 40.5929C76.7126 39.7771 76.2164 39.0593 75.5435 38.5382C74.9655 38.0441 74.2672 37.7137 73.52 37.5811C72.773 37.4483 72.0042 37.518 71.2928 37.783Z" fill="#306EE2"/>
<path d="M82.1904 35.8724C82.4641 36.7608 82.5546 37.696 82.456 38.6206C82.3064 39.5636 81.9408 40.4587 81.3882 41.2353C80.9686 41.8937 80.3619 42.4104 79.6468 42.7181C78.9318 43.0259 78.1411 43.1105 77.3776 42.9612C77.199 42.1682 77.199 41.3451 77.3776 40.5521C77.6022 39.7091 77.9464 38.9028 78.3995 38.1584C79.3548 36.6687 80.8008 35.7698 82.1904 35.8724Z" fill="#306EE2"/>
<path d="M69.9034 32.6976C70.0424 33.4127 70.3312 34.0898 70.7504 34.6841C71.1697 35.2783 71.7099 35.7762 72.3353 36.1444C73.7556 37.0177 75.2985 37.3053 76.6218 36.7608C76.6417 35.9484 76.4193 35.1487 75.9831 34.4646C75.566 33.7355 74.9741 33.1228 74.2614 32.6822C73.5965 32.303 72.8447 32.1049 72.0803 32.1076C71.316 32.1103 70.5655 32.3138 69.9034 32.6976Z" fill="#306EE2"/>
<path d="M80.3107 28.9067C80.756 29.7357 81.0022 30.6582 81.0297 31.6C81.0572 32.5418 80.8652 33.4771 80.469 34.3312C80.1589 35.0567 79.6411 35.6734 78.9816 36.1024C78.322 36.5314 77.5504 36.7534 76.765 36.7402C76.5259 35.9703 76.4036 35.1686 76.4022 34.3619C76.4374 33.4831 76.6422 32.6195 77.0051 31.8192C77.659 30.1806 78.9108 29.0454 80.3107 28.9067Z" fill="#306EE2"/>
<path d="M67.7167 27.8895C67.9564 28.53 68.3173 29.118 68.7795 29.6205C69.3319 30.1621 69.9892 30.5835 70.7106 30.8586C71.3862 31.184 72.1296 31.3413 72.8784 31.3172C73.6272 31.2931 74.3591 31.0882 75.0124 30.7198C74.8627 29.9055 74.5031 29.1451 73.9697 28.5142C73.4363 27.8832 72.7478 27.4039 71.9726 27.1241C71.2597 26.8594 70.4893 26.7908 69.7413 26.9254C68.9931 27.0599 68.2943 27.3928 67.7167 27.8895Z" fill="#306EE2"/>
<path d="M77.3019 22.3263C77.8967 23.0464 78.2931 23.9107 78.4514 24.833C78.6612 25.7562 78.6454 26.7168 78.4055 27.6326C77.8383 29.4716 76.5354 30.4834 75.1561 30.6684C74.3567 29.175 74.1329 27.4375 74.5277 25.7886C74.9671 24.0163 75.9224 22.727 77.3019 22.3263Z" fill="#306EE2"/>
<path d="M64.7537 23.6112C65.0664 24.2267 65.5243 24.7557 66.0873 25.1522C66.7335 25.5653 67.4429 25.8689 68.187 26.0512C68.915 26.2471 69.6789 26.2667 70.4159 26.1088C71.1529 25.9508 71.8423 25.6195 72.4275 25.142C72.1492 24.3575 71.6634 23.6642 71.0224 23.1365C70.3816 22.6089 69.6096 22.2669 68.7899 22.1472C68.0484 22.0045 67.2823 22.0651 66.5722 22.3226C65.8619 22.5802 65.2338 23.0254 64.7537 23.6112Z" fill="#306EE2"/>
<path d="M73.2448 16.4556C73.9161 17.0934 74.4394 17.8721 74.7775 18.7363C75.1649 19.6055 75.308 20.5648 75.1913 21.5101C74.9717 23.4056 73.8732 24.6282 72.5398 25.0545C72.0112 24.4381 71.6287 23.7093 71.4209 22.9227C71.1248 22.101 71.0014 21.2265 71.0582 20.3544C71.2064 18.5461 71.9726 17.072 73.2448 16.4556Z" fill="#306EE2"/>
<path d="M60.9988 19.8152C61.7701 20.9092 63.1957 21.4948 64.7896 21.6129C66.3836 21.7312 67.9929 21.0685 68.8309 19.9589C68.4042 19.254 67.8038 18.6718 67.0878 18.2686C66.3717 17.8656 65.5643 17.655 64.7436 17.6576C63.9842 17.6457 63.2355 17.8396 62.5765 18.2194C61.9174 18.599 61.3724 19.1503 60.9988 19.8152Z" fill="#306EE2"/>
<path d="M68.1308 11.293C68.9207 11.7936 69.5842 12.4717 70.069 13.274C70.5541 14.0762 70.8472 14.9805 70.9255 15.9161C71.0531 17.8063 70.1898 19.1984 68.9431 19.8507C67.6695 18.7428 66.8578 17.193 66.6696 15.5103C66.4551 13.7381 66.9967 12.1046 68.1308 11.293Z" fill="#306EE2"/>
<path d="M56.5944 16.7224C57.0964 17.1942 57.7192 17.5162 58.3929 17.6522C59.1218 17.8779 59.8923 17.9341 60.646 17.8166C62.2961 17.5546 63.7114 16.7328 64.3449 15.4793C63.8076 14.8782 63.1298 14.421 62.3728 14.1489C61.591 13.8275 60.7311 13.7505 59.9052 13.928C59.1564 14.0566 58.4552 14.3832 57.8732 14.8743C57.2915 15.3653 56.8502 16.0032 56.5944 16.7224Z" fill="#306EE2"/>
<path d="M62.1532 7.10645C63.0035 7.46093 63.7734 7.98518 64.4164 8.64748C65.0289 9.37569 65.4722 10.2321 65.7141 11.1542C65.9464 11.9044 65.9493 12.7075 65.7225 13.4593C65.4957 14.2112 65.0496 14.8773 64.442 15.3715C63.7375 14.9724 63.1219 14.4321 62.6334 13.7842C62.126 13.079 61.7296 12.2993 61.4583 11.4727C60.9269 9.7827 61.1723 8.08756 62.1532 7.10645Z" fill="#306EE2"/>
<path d="M51.715 14.4567C52.3481 14.8103 53.0489 15.0233 53.7707 15.0818C54.4924 15.1402 55.2183 15.0428 55.8994 14.7957C57.478 14.2821 58.6837 13.2547 59.1231 11.8832C58.5156 11.3468 57.7635 11.0036 56.962 10.897C56.1401 10.7433 55.2923 10.8106 54.5046 11.0922C53.7871 11.358 53.1519 11.8088 52.6622 12.3993C52.1727 12.9898 51.846 13.6993 51.715 14.4567Z" fill="#306EE2"/>
<path d="M55.5205 3.98303C56.4366 4.17146 57.2957 4.57364 58.0288 5.15718C58.7618 5.74071 59.3482 6.48927 59.7407 7.34248C60.0895 8.04648 60.2238 8.83845 60.1266 9.61892C60.0293 10.3994 59.7049 11.1336 59.1939 11.7293C58.4505 11.4261 57.7606 11.0046 57.1504 10.481C56.5139 9.88668 55.994 9.17752 55.6177 8.39038C54.7797 6.85448 54.7288 5.15422 55.5205 3.98303Z" fill="#306EE2"/>
<path d="M46.6575 13.0394C47.3327 13.2885 48.0552 13.3809 48.771 13.3097C49.4867 13.2386 50.1771 13.0057 50.7908 12.6284C51.4656 12.3197 52.057 11.8525 52.5149 11.2661C52.9727 10.6796 53.2838 9.9912 53.422 9.25871C52.7133 8.85753 51.9126 8.6502 51.0995 8.65741C50.2865 8.66462 49.4893 8.88611 48.7881 9.2998C48.1349 9.67707 47.5934 10.2222 47.219 10.8794C46.8446 11.5366 46.6509 12.282 46.6575 13.0394Z" fill="#306EE2"/>
<path d="M48.5681 2.17993C49.4877 2.17957 50.3907 2.42606 51.184 2.89394C52.0044 3.3284 52.7141 3.94712 53.2582 4.70208C54.2799 6.30988 54.2084 7.94852 53.4728 9.11969C51.8322 8.78832 50.3744 7.85202 49.3855 6.49481C48.3536 5.05138 47.9908 3.51035 48.5681 2.17993Z" fill="#306EE2"/>
<path d="M41.2721 12.5152C41.9303 12.6878 42.6232 12.6754 43.2749 12.4792C43.9943 12.2463 44.6721 11.8995 45.2827 11.4519C45.894 11.017 46.3948 10.4435 46.7446 9.77769C47.0943 9.11191 47.2832 8.37267 47.2956 7.61985C46.5427 7.37519 45.7441 7.30668 44.9609 7.41951C44.1403 7.59191 43.375 7.96605 42.7333 8.50852C42.1548 8.98326 41.714 9.60569 41.4569 10.3106C41.1998 11.0155 41.136 11.777 41.2721 12.5152Z" fill="#306EE2"/>
<path d="M41.2979 1.4816C43.0349 1.33263 45.0683 1.76926 46.3405 3.20755C47.6125 4.64585 47.8732 6.19715 47.3214 7.48647C46.5212 7.49369 45.7298 7.31805 45.0069 6.97279C44.2101 6.67175 43.4806 6.21426 42.8612 5.62697C41.5686 4.41469 40.9504 2.82743 41.2979 1.4816Z" fill="#306EE2"/>
<path d="M21.071 6.85459C6.08625 15.6231 2.46397 29.0352 2.46397 29.0352C0.856798 33.4461 0.0235743 38.1042 0.00141907 42.8017C0.00141907 53.0752 3.39381 62.5782 9.50418 69.8827C9.50418 69.8827 17.1677 78.3428 18.2406 77.4131C21.0311 75.112 23.4178 72.3564 25.3012 69.261C24.9079 69.0196 24.4276 68.6857 24.0495 68.429L19.7937 70.9973L18.8179 70.874L13.5965 65.5831C13.5505 65.2133 13.5199 64.9616 13.479 64.5969L16.0795 60.2152C14.7433 58.1824 13.6509 55.9978 12.8251 53.707C12.6565 53.255 12.5083 52.7874 12.355 52.3253C12.2477 51.9759 12.1455 51.5957 12.0485 51.2413C11.8441 50.5325 11.7011 49.7927 11.5376 49.0634C11.512 48.9349 11.4916 48.8014 11.466 48.6679L6.70956 47.4709L6.13224 46.6594V39.0621L6.74021 38.2761L11.6449 37.0535C11.6449 36.9611 11.6909 36.879 11.7062 36.7865C11.8901 35.8876 12.1251 35.0656 12.3806 34.1924C13.2631 31.2478 14.6028 28.4619 16.3503 25.9377L13.7958 21.7204C13.8417 21.3556 13.8724 21.104 13.9184 20.7341L19.4157 15.2738L20.3967 15.1557L24.2999 17.4722L25.0152 17.9346L25.0868 17.8935C25.5976 17.5545 26.1698 17.2154 26.7165 16.9022L27.7383 16.3525C28.4127 16.0031 29.082 15.695 29.7819 15.3919L30.2672 15.1915C32.1706 14.4738 34.1405 13.9489 36.1477 13.6248L36.7506 8.48809L37.5272 7.87682L41.3589 7.63025V1.45586C34.2409 1.42336 27.2411 3.28604 21.071 6.85459Z" fill="#306EE2"/>
<path d="M18.6386 33.0162C18.6406 33.1497 18.6031 33.2808 18.5308 33.3929C18.4586 33.5049 18.3547 33.5927 18.2326 33.6453C18.1105 33.6977 17.9756 33.7125 17.8451 33.6878C17.7146 33.6629 17.5944 33.5997 17.4998 33.5061C17.4052 33.4123 17.3404 33.2924 17.3137 33.1617C17.2871 33.0308 17.2997 32.8951 17.3501 32.7714C17.4005 32.6479 17.4862 32.5422 17.5964 32.4678C17.7068 32.3934 17.8365 32.3537 17.9693 32.3537C18.0565 32.3529 18.143 32.3695 18.2238 32.4024C18.3048 32.4354 18.3783 32.484 18.4405 32.5456C18.5026 32.607 18.5521 32.6803 18.5862 32.7611C18.6201 32.8419 18.6379 32.9285 18.6386 33.0162Z" fill="#306EE2"/>
<path d="M65.7642 32.9907C65.7662 33.1241 65.7287 33.2553 65.6563 33.3673C65.584 33.4792 65.4802 33.5671 65.3581 33.6196C65.236 33.6722 65.1012 33.6869 64.9707 33.6621C64.8402 33.6374 64.72 33.574 64.6254 33.4804C64.5307 33.3866 64.4659 33.2668 64.4393 33.136C64.4127 33.0053 64.4253 32.8694 64.4757 32.7458C64.5259 32.6223 64.6116 32.5166 64.722 32.4422C64.8322 32.3678 64.962 32.328 65.0948 32.328C65.1821 32.3273 65.2686 32.3439 65.3494 32.3768C65.4302 32.4099 65.5038 32.4584 65.5661 32.5199C65.6282 32.5815 65.6776 32.6548 65.7116 32.7355C65.7456 32.8163 65.7635 32.9029 65.7642 32.9907Z" fill="#306EE2"/>
<path d="M22.3024 28.9527L21.9754 29.4355L20.7083 28.5674L21.4594 30.2214L21.1376 30.6941L19.2166 29.3996L19.5384 28.9167L20.6879 29.7078L20.0391 28.1668L20.3967 27.6531L22.3024 28.9527Z" fill="#306EE2"/>
<path d="M24.3823 26.5024L23.989 26.9493L23.2328 26.2661L22.6452 26.9237L23.4014 27.6068L23.0028 28.0537L21.2914 26.5128L21.6898 26.0657L22.3132 26.6258L22.9007 25.9682L22.2723 25.4032L22.6707 24.9563L24.3823 26.5024Z" fill="#306EE2"/>
<path d="M26.0577 25.0436C25.9365 25.1514 25.7983 25.2382 25.6488 25.3005C25.5114 25.3571 25.3629 25.3817 25.2146 25.3724C25.0652 25.364 24.9198 25.32 24.7906 25.244C24.6353 25.1607 24.4982 25.0473 24.3869 24.9101C24.2738 24.7812 24.1839 24.6336 24.1213 24.4735C24.0664 24.3313 24.0437 24.1787 24.0549 24.0267C24.0633 23.8764 24.107 23.7302 24.1826 23.6003C24.2621 23.4537 24.3678 23.3231 24.4943 23.215C24.5613 23.1582 24.6311 23.1051 24.7037 23.0557L24.8928 22.948C24.9389 22.9209 24.9867 22.8968 25.0358 22.876L25.1942 22.8297L25.557 23.2561L25.5059 23.2971H25.3679H25.1891C25.123 23.313 25.0581 23.3337 24.9949 23.3589C24.9271 23.3845 24.8647 23.4229 24.811 23.4719C24.7516 23.526 24.7001 23.5882 24.6578 23.6568C24.6143 23.73 24.5897 23.813 24.5862 23.8982C24.5781 23.991 24.5922 24.0842 24.6271 24.1704C24.6699 24.2832 24.7322 24.3876 24.811 24.4786C24.8905 24.5737 24.9877 24.6522 25.0972 24.7097C25.1735 24.756 25.2598 24.783 25.3487 24.7884C25.4378 24.7938 25.5267 24.7773 25.608 24.7406C25.6792 24.708 25.7463 24.6666 25.8073 24.6173C25.8627 24.5694 25.9095 24.512 25.9453 24.4478C25.9851 24.3875 26.0161 24.3218 26.0373 24.2527C26.0572 24.1992 26.0726 24.1443 26.0832 24.0883C26.0832 24.0318 26.0832 23.9907 26.0832 23.9496L26.1343 23.9084L26.4919 24.3297L26.4153 24.4941C26.4153 24.5455 26.3591 24.5967 26.3284 24.6481C26.2978 24.6995 26.2416 24.7766 26.2006 24.828C26.1569 24.9024 26.1092 24.9745 26.0577 25.0436Z" fill="#306EE2"/>
<path d="M27.8871 21.2941L27.2894 21.7L28.3112 23.241L27.8002 23.5749L26.7785 22.0339L26.1808 22.4397L25.9304 22.0698L27.6163 20.9192L27.8871 21.2941Z" fill="#306EE2"/>
<path d="M31.595 21.4068L31.0841 21.6688L30.3893 20.2921L30.2309 22.1055L29.7201 22.3674L28.6982 20.3127L29.2091 20.0456L29.8375 21.2938L30.001 19.6398L30.5682 19.3521L31.595 21.4068Z" fill="#306EE2"/>
<path d="M33.7204 18.5816L33.041 18.8283L33.6694 20.5902L33.1124 20.7905L32.4942 19.0287L31.8147 19.2752L31.6768 18.8539L33.5875 18.1605L33.7204 18.5816Z" fill="#306EE2"/>
<path d="M36.7152 17.3798L36.3065 19.378C36.2897 19.4792 36.2551 19.5766 36.2043 19.6658C36.1639 19.7386 36.1102 19.8029 36.046 19.8558C35.9917 19.8987 35.9314 19.9332 35.8671 19.9584C35.8066 19.9851 35.7432 20.004 35.6781 20.0149L35.4277 20.0714L35.2337 20.1023L35.1213 19.5886H35.157H35.2694H35.4329C35.5146 19.5724 35.5937 19.5447 35.6678 19.5065C35.7106 19.4839 35.7447 19.4478 35.765 19.4037L34.4672 17.8935L35.0956 17.7496L35.8978 18.6948L36.1123 17.5134L36.7152 17.3798Z" fill="#306EE2"/>
<path d="M39.6932 17.4463L38.9779 17.5284L39.1772 19.3879L38.5845 19.4342L38.3853 17.5695L37.6701 17.6467L37.624 17.1996L39.6677 16.9789L39.6932 17.4463Z" fill="#306EE2"/>
<path d="M44.516 17.8472C44.5104 17.9523 44.4844 18.0554 44.4393 18.1504C44.3976 18.2399 44.3385 18.3203 44.2655 18.3867C44.1716 18.468 44.0621 18.5291 43.9437 18.5664C43.8064 18.6078 43.6623 18.6217 43.5197 18.6075L43.1518 18.5767L43.0906 19.3318L42.4979 19.2856L42.6766 16.9689L43.6525 17.0459C43.7772 17.0541 43.9007 17.0765 44.0204 17.1127C44.1119 17.1436 44.1981 17.1887 44.2758 17.2463C44.3601 17.313 44.4267 17.3993 44.4699 17.498C44.5122 17.6091 44.528 17.7288 44.516 17.8472ZM43.9029 17.8165C43.9075 17.7594 43.8955 17.7023 43.8683 17.6521C43.8411 17.6019 43.7998 17.5608 43.7495 17.534C43.6932 17.5059 43.6329 17.4868 43.5708 17.4775H43.3408H43.2387L43.1825 18.1709H43.3511C43.4344 18.176 43.5181 18.176 43.6014 18.1709C43.6628 18.162 43.7219 18.1411 43.7752 18.1093C43.8151 18.0803 43.8468 18.0413 43.8671 17.9963C43.8896 17.939 43.9017 17.8781 43.9029 17.8165Z" fill="#306EE2"/>
<path d="M47.4649 20.01L46.8672 19.8816L46.8007 19.3936L45.9833 19.2189L45.7331 19.6453L45.1455 19.5272L46.4381 17.4211L47.1073 17.5598L47.4649 20.01ZM46.7446 18.9467L46.6322 18.0735L46.1928 18.8337L46.7446 18.9467Z" fill="#306EE2"/>
<path d="M50.2339 20.179C50.2032 20.2853 50.1471 20.3823 50.0704 20.4615C49.9967 20.5352 49.905 20.5883 49.8046 20.6156C49.685 20.6489 49.5606 20.6611 49.4368 20.6515C49.2763 20.6358 49.1183 20.5995 48.9668 20.5438C48.8178 20.4948 48.6741 20.4312 48.5377 20.3536C48.4191 20.2862 48.3062 20.2089 48.2004 20.1225L48.3639 19.6088H48.4201L48.5223 19.7167C48.5658 19.7639 48.6118 19.8084 48.6602 19.8502L48.8391 19.9786C48.9009 20.0185 48.9679 20.0497 49.0383 20.0711C49.1092 20.0983 49.1829 20.1173 49.258 20.1276C49.3174 20.1356 49.3775 20.1356 49.4368 20.1276C49.4872 20.116 49.5342 20.0931 49.5748 20.0609C49.6146 20.0331 49.645 19.9936 49.6617 19.9479C49.6731 19.8988 49.6731 19.8479 49.6617 19.799C49.6566 19.7569 49.6388 19.7174 49.6106 19.6858C49.5746 19.6503 49.5332 19.6209 49.4879 19.5986C49.4268 19.5685 49.3636 19.5427 49.2989 19.5216L48.9003 19.3828L49.0281 18.9924L49.4163 19.1208C49.479 19.1437 49.5442 19.1593 49.6106 19.1671C49.6559 19.1779 49.7031 19.1779 49.7484 19.1671C49.783 19.1556 49.8146 19.1363 49.8404 19.1105C49.8624 19.079 49.8796 19.0444 49.8915 19.0078C49.904 18.9727 49.9053 18.9346 49.8951 18.8986C49.8851 18.8628 49.8641 18.8309 49.8353 18.8075C49.7525 18.7393 49.657 18.6887 49.5544 18.6585C49.4828 18.6346 49.4092 18.6174 49.3347 18.6071H49.1354H48.9617H48.8186H48.7675L48.9209 18.1448C49.0541 18.1445 49.1872 18.1529 49.3193 18.1706C49.4773 18.1918 49.633 18.2279 49.7842 18.2785C50.023 18.3427 50.2401 18.4704 50.4126 18.6483C50.4688 18.7105 50.5069 18.7868 50.5231 18.8692C50.5393 18.9515 50.533 19.0367 50.5046 19.1157C50.4649 19.235 50.3832 19.3355 50.2747 19.3982C50.1609 19.4608 50.031 19.4876 49.9018 19.4753C49.9545 19.5042 50.0042 19.5386 50.05 19.5781C50.1017 19.619 50.145 19.6695 50.1777 19.727C50.2145 19.7864 50.2388 19.8528 50.2491 19.9221C50.2646 20.0078 50.2592 20.0959 50.2339 20.179Z" fill="#306EE2"/>
<path d="M53.0585 21.4482C53.014 21.5433 52.9474 21.6261 52.8642 21.6896C52.7881 21.7495 52.6987 21.79 52.6037 21.8079C52.4942 21.831 52.3811 21.831 52.2716 21.8079C52.1369 21.7783 52.0064 21.7317 51.8833 21.6691L50.974 21.2325L51.9957 19.1367L52.7979 19.5271C52.9232 19.5835 53.0444 19.6487 53.1606 19.7222C53.236 19.7714 53.3019 19.8341 53.3548 19.9072C53.4117 19.9778 53.4472 20.0634 53.4569 20.1538C53.4615 20.2445 53.4422 20.335 53.4007 20.4158C53.3578 20.512 53.2864 20.5929 53.1963 20.6469C53.1005 20.6977 52.993 20.7225 52.8847 20.7188C52.9978 20.7986 53.0834 20.9118 53.13 21.0425C53.1604 21.1819 53.1348 21.3278 53.0585 21.4482ZM52.5016 21.1708C52.5339 21.1188 52.5465 21.0568 52.5374 20.9962C52.5227 20.9396 52.4906 20.8892 52.4454 20.8523C52.395 20.8119 52.3401 20.7775 52.2819 20.7497L52.0519 20.6418L51.9395 20.5853L51.6893 21.099H51.7301L52.0519 21.2531C52.1148 21.2822 52.1823 21.2995 52.2512 21.3045C52.3071 21.309 52.3628 21.2944 52.4096 21.2633C52.4473 21.2404 52.4789 21.2088 52.5016 21.1708ZM52.7775 20.2565C52.7856 20.2176 52.7856 20.1773 52.7775 20.1384C52.7763 20.116 52.7708 20.0938 52.7611 20.0736C52.7514 20.0534 52.738 20.0352 52.7212 20.0202C52.692 19.9922 52.6595 19.968 52.6241 19.9484L52.3789 19.8301H52.3278L52.1184 20.2719L52.2001 20.313L52.4198 20.4158C52.468 20.4378 52.5201 20.45 52.573 20.4518C52.5973 20.4553 52.6219 20.4539 52.6457 20.4477C52.6693 20.4416 52.6916 20.4306 52.711 20.4158C52.7485 20.3707 52.7717 20.3152 52.7775 20.2565Z" fill="#306EE2"/>
<path d="M55.389 23.7395L54.8782 23.4209L55.716 22.1265L54.076 22.8969L53.606 22.5888L54.8576 20.642L55.3686 20.9604L54.6125 22.1316L56.1146 21.4484L56.6254 21.7926L55.389 23.7395Z" fill="#306EE2"/>
<path d="M58.8827 24.1862L58.3309 23.7187L57.1304 25.1519L56.6807 24.7666L57.8763 23.3335L57.3296 22.8661L57.6157 22.5219L59.1485 23.8471L58.8827 24.1862Z" fill="#306EE2"/>
<path d="M59.7766 27.818L59.3831 27.3917L60.5121 26.3642L58.7342 26.7034L58.351 26.2821L60.0422 24.7102L60.4355 25.1366L59.4138 26.0868L61.0334 25.7942L61.4625 26.2667L59.7766 27.818Z" fill="#306EE2"/>
<path d="M61.6015 30.309L61.2644 29.7953L61.9541 29.3073L61.7651 29.0403H60.7433L60.3397 28.4597H61.5146C61.476 28.3238 61.476 28.1797 61.5146 28.0437C61.5685 27.9 61.6671 27.7774 61.7958 27.6944C61.8821 27.6297 61.9848 27.5905 62.0921 27.5814C62.1906 27.5723 62.2898 27.5847 62.3832 27.6173C62.4692 27.6537 62.5486 27.7041 62.6182 27.7663C62.7032 27.8462 62.7787 27.9359 62.843 28.0335L63.4663 28.9169L61.6015 30.309ZM62.2912 29.0915L62.8022 28.732L62.6336 28.4855C62.5825 28.4135 62.5416 28.357 62.5109 28.3211C62.4734 28.2839 62.4281 28.2558 62.3781 28.2389C62.3362 28.2285 62.2924 28.2285 62.2504 28.2389C62.2042 28.248 62.1606 28.2672 62.1226 28.2954C62.0811 28.3233 62.0462 28.3601 62.0205 28.4032C61.9985 28.4425 61.9863 28.4866 61.9848 28.5316C61.9845 28.5819 61.9968 28.6314 62.0205 28.6755C62.0512 28.7383 62.0871 28.7984 62.1278 28.8553L62.2912 29.0915Z" fill="#306EE2"/>
<path d="M14.8179 41.1021L14.8844 40.4959L16.7287 40.722L16.8615 39.8539L15.0172 39.6279L15.0887 39.0371L17.3725 39.3145L17.1272 41.3691L14.8179 41.1021Z" fill="#306EE2"/>
<path d="M16.35 44.4097C16.2473 44.4107 16.1452 44.3932 16.0486 44.3583C15.9567 44.3255 15.873 44.2729 15.8034 44.2042C15.7138 44.1166 15.6425 44.0119 15.5939 43.896C15.5432 43.7598 15.5188 43.6151 15.5223 43.4697V43.0999H14.7458V42.504H17.05V43.4748C17.053 43.6008 17.041 43.7267 17.0142 43.8498C16.9916 43.946 16.9537 44.0379 16.9018 44.1221C16.843 44.213 16.7622 44.2871 16.6668 44.3377C16.5677 44.3845 16.4595 44.4091 16.35 44.4097ZM16.35 43.7933C16.411 43.7945 16.4705 43.7745 16.5186 43.7368C16.5622 43.7059 16.5959 43.6631 16.6158 43.6135C16.6408 43.5568 16.6547 43.4958 16.6566 43.4338C16.6566 43.372 16.6566 43.295 16.6566 43.1923V43.0946H15.9312V43.2694C15.9222 43.353 15.9222 43.4374 15.9312 43.521C15.941 43.581 15.9655 43.6375 16.0026 43.6854C16.0366 43.7219 16.0786 43.75 16.1252 43.7677C16.1843 43.7882 16.2468 43.7969 16.3092 43.7933H16.35Z" fill="#306EE2"/>
<path d="M16.2637 47.7381C16.1073 47.7664 15.9468 47.7632 15.7917 47.7288C15.6364 47.6943 15.4896 47.6295 15.3594 47.5378C15.2327 47.4374 15.1281 47.3116 15.0524 47.1683C14.9768 47.0251 14.9317 46.8675 14.92 46.7057C14.8917 46.5477 14.8957 46.3857 14.9317 46.2294C14.9678 46.073 15.035 45.9258 15.1296 45.7965C15.2315 45.6723 15.3574 45.5699 15.4996 45.4958C15.6418 45.4217 15.7975 45.3771 15.9572 45.3649C16.1144 45.334 16.2762 45.3358 16.4326 45.3703C16.589 45.4047 16.7367 45.4711 16.8666 45.5653C16.992 45.6653 17.0954 45.7905 17.1702 45.933C17.2449 46.0752 17.2895 46.2318 17.3008 46.3924C17.3298 46.5507 17.3264 46.7133 17.2914 46.8704C17.2562 47.0275 17.19 47.1759 17.0965 47.3067C16.8859 47.5548 16.5868 47.7097 16.2637 47.7381ZM15.5842 47.0293C15.6657 47.0776 15.7561 47.1091 15.8499 47.1217C15.9617 47.1372 16.0753 47.1372 16.1871 47.1217C16.3056 47.1075 16.4211 47.0744 16.5295 47.0242C16.6124 46.9887 16.6873 46.9362 16.749 46.87C16.8016 46.8091 16.84 46.7372 16.8615 46.6594C16.8766 46.5884 16.8766 46.5148 16.8615 46.4436C16.851 46.3702 16.8285 46.2992 16.7951 46.2331C16.7552 46.167 16.7011 46.1108 16.6366 46.0687C16.5593 46.0184 16.4722 45.9852 16.3813 45.9711C16.2643 45.9557 16.1457 45.9557 16.0286 45.9711C15.911 45.9862 15.7959 46.0174 15.6864 46.0636C15.6053 46.1027 15.5312 46.1547 15.4667 46.2176C15.4173 46.2762 15.3807 46.3443 15.3594 46.418C15.344 46.4925 15.344 46.5694 15.3594 46.644C15.3708 46.7178 15.3952 46.7892 15.4309 46.8547C15.468 46.9239 15.5204 46.9836 15.5842 47.0293Z" fill="#306EE2"/>
<path d="M17.7547 50.8818C17.7076 50.991 17.6338 51.0865 17.5401 51.1592C17.4365 51.2425 17.3163 51.3021 17.1876 51.3338C17.0617 51.3715 16.9295 51.3821 16.7993 51.3647C16.6805 51.3441 16.5674 51.2986 16.4672 51.2311C16.3622 51.1545 16.2707 51.0608 16.1964 50.9537C16.1129 50.8276 16.0459 50.6913 15.9972 50.5479L15.7571 50.6148L15.5987 50.0394L15.8439 49.9726C15.8104 49.8263 15.7984 49.6757 15.8081 49.5257C15.8127 49.3947 15.8421 49.2656 15.895 49.1457C15.9471 49.0351 16.022 48.9371 16.1147 48.8579C16.2175 48.7767 16.3357 48.7173 16.4621 48.6833C16.5857 48.6433 16.7169 48.6328 16.8453 48.6525C16.9628 48.6689 17.0747 48.7129 17.1722 48.7809C17.2769 48.8563 17.3669 48.9504 17.438 49.0583C17.5195 49.1892 17.5863 49.3287 17.6371 49.4743L17.8671 49.4127L18.0203 49.9829L17.7956 50.0496C17.8299 50.1995 17.8452 50.3531 17.8415 50.5068C17.8376 50.6364 17.808 50.7639 17.7547 50.8818ZM16.222 49.8545L17.2795 49.5617C17.2317 49.4379 17.1409 49.3357 17.0241 49.2741C16.902 49.2292 16.7681 49.2292 16.6461 49.2741C16.5128 49.3004 16.3923 49.3711 16.3037 49.4743C16.2624 49.5305 16.233 49.5946 16.2172 49.6626C16.2014 49.7306 16.1996 49.8012 16.2117 49.8699L16.222 49.8545ZM17.0445 50.7174C17.1731 50.6908 17.2865 50.6153 17.3612 50.5068C17.4309 50.3971 17.4564 50.265 17.4328 50.137L16.3497 50.4453C16.3725 50.5106 16.4082 50.5708 16.4547 50.622C16.5014 50.6733 16.5577 50.7145 16.6204 50.7432C16.7558 50.7853 16.9012 50.7816 17.0343 50.7328L17.0445 50.7174Z" fill="#306EE2"/>
<path d="M17.1476 54.3647L16.5038 52.8237L18.6292 51.9248L19.2729 53.4658L18.8642 53.6404L18.4452 52.6388L18.0774 52.7981L18.4657 53.7227L18.057 53.8973L17.6687 52.9676L17.1577 53.1935L17.5767 54.1901L17.1476 54.3647Z" fill="#306EE2"/>
<path d="M18.1788 56.4658C18.099 56.3239 18.0438 56.1694 18.0152 56.0087C17.9819 55.865 17.9819 55.7156 18.0152 55.572C18.0571 55.4256 18.1284 55.2891 18.2248 55.1715C18.3415 55.0372 18.4817 54.9258 18.6386 54.8427C18.7847 54.76 18.9436 54.7027 19.1087 54.6732C19.2567 54.6395 19.4102 54.6395 19.5582 54.6732C19.7021 54.7123 19.835 54.7844 19.9465 54.8837C20.0728 54.9921 20.1784 55.1225 20.2582 55.269C20.2999 55.3474 20.3374 55.428 20.3706 55.5105C20.399 55.5785 20.4211 55.6489 20.4369 55.721C20.4559 55.7846 20.4678 55.85 20.4727 55.9163C20.4727 55.9779 20.4727 56.0344 20.4727 56.0807L19.9619 56.3528L19.9312 56.2963C19.9312 56.2553 19.9312 56.2091 19.9312 56.1577C19.9367 56.0961 19.9367 56.0342 19.9312 55.9728C19.9361 55.9061 19.9361 55.8391 19.9312 55.7724C19.9178 55.6999 19.8919 55.6304 19.8546 55.567C19.8156 55.496 19.7655 55.432 19.7064 55.3769C19.6433 55.3236 19.5704 55.2834 19.4918 55.2587C19.4011 55.2377 19.3067 55.2377 19.2159 55.2587C18.9749 55.3043 18.7556 55.4289 18.5927 55.6131C18.5358 55.6864 18.494 55.7701 18.47 55.8598C18.4502 55.9407 18.4502 56.0253 18.47 56.1063C18.4839 56.1835 18.5098 56.258 18.5466 56.3272C18.5836 56.3892 18.6282 56.4462 18.6794 56.4967C18.7313 56.5472 18.7898 56.5905 18.8532 56.6251C18.9022 56.6548 18.9534 56.6806 19.0064 56.7022C19.047 56.7241 19.0897 56.7413 19.1342 56.7536L19.1649 56.8101L18.6539 57.0824L18.5108 56.9692C18.4641 56.9328 18.4198 56.8934 18.378 56.8511C18.3276 56.8006 18.2798 56.7474 18.235 56.692C18.2111 56.618 18.1922 56.5424 18.1788 56.4658Z" fill="#306EE2"/>
<path d="M19.8501 59.0755C19.7584 58.9427 19.6861 58.7974 19.6354 58.6441C19.5934 58.5008 19.5813 58.3504 19.5997 58.2023C19.6231 58.0532 19.6789 57.911 19.7632 57.7861C19.8601 57.638 19.985 57.5106 20.131 57.4111C20.2676 57.3086 20.4217 57.232 20.5858 57.1852C20.7311 57.1394 20.8852 57.1288 21.0353 57.1543C21.1818 57.1786 21.3214 57.2347 21.444 57.3187C21.5797 57.413 21.6988 57.5292 21.7966 57.6629C21.8477 57.735 21.8937 57.8104 21.9346 57.8889C21.9686 57.9608 21.9992 58.0275 22.0265 58.0893C22.0493 58.153 22.068 58.2183 22.0827 58.2844C22.0827 58.3409 22.1082 58.3974 22.1133 58.4437L21.6637 58.7723L21.6229 58.7158C21.6229 58.6799 21.6229 58.6337 21.6229 58.5772C21.6278 58.5174 21.6278 58.4572 21.6229 58.3974C21.6167 58.3294 21.6029 58.2621 21.5821 58.197C21.5612 58.1268 21.5283 58.0609 21.4849 58.0019C21.438 57.9368 21.381 57.8796 21.3163 57.8324C21.2465 57.7855 21.1684 57.7525 21.0865 57.7348C20.9958 57.7126 20.9012 57.7126 20.8106 57.7348C20.6962 57.7678 20.5887 57.8218 20.4938 57.894C20.3919 57.9648 20.3035 58.0534 20.2333 58.156C20.1862 58.2366 20.1549 58.3256 20.1413 58.4179C20.1235 58.4974 20.1235 58.58 20.1413 58.6593C20.1638 58.7346 20.1982 58.8058 20.2434 58.87C20.2851 58.93 20.3371 58.9822 20.3966 59.0241C20.4518 59.0697 20.514 59.1061 20.5806 59.132L20.739 59.1936L20.8718 59.2296L20.9127 59.281L20.4631 59.6045L20.3099 59.5121L20.1617 59.4094C20.1003 59.3631 20.0494 59.3118 19.9982 59.2655C19.9458 59.2047 19.8964 59.1412 19.8501 59.0755Z" fill="#306EE2"/>
<path d="M22.5682 62.2293L22.1748 61.8029L23.2988 60.7756L21.526 61.1197L21.1428 60.6986L22.8339 59.1216L23.2222 59.553L22.2005 60.5033L23.8251 60.2105L24.2543 60.6779L22.5682 62.2293Z" fill="#306EE2"/>
<path d="M26.0578 63.7394C25.9619 63.8682 25.8417 63.9767 25.7042 64.0586C25.5664 64.1406 25.4141 64.1945 25.2556 64.2172C24.9315 64.2281 24.6142 64.1208 24.3626 63.9151C24.1109 63.7092 23.9417 63.4188 23.8864 63.0973C23.8719 62.7724 23.9858 62.4548 24.2033 62.2139C24.2993 62.0841 24.4203 61.975 24.5589 61.8929C24.6975 61.8109 24.851 61.7576 25.0104 61.7361C25.1696 61.726 25.3292 61.7486 25.4794 61.8025C25.6296 61.8564 25.7673 61.9404 25.8842 62.0495C26.0132 62.1451 26.1211 62.2666 26.2012 62.4062C26.2811 62.546 26.3315 62.7008 26.3491 62.8611C26.3714 63.181 26.2667 63.497 26.0578 63.7394ZM25.0361 63.683C25.1295 63.6659 25.2183 63.6291 25.2966 63.5751C25.3881 63.5094 25.4707 63.4316 25.5418 63.344C25.6207 63.2519 25.6846 63.148 25.7308 63.0357C25.7664 62.9531 25.7838 62.8637 25.7819 62.7737C25.7838 62.697 25.7663 62.621 25.7308 62.5528C25.6963 62.4878 25.6496 62.4302 25.5929 62.3833C25.5372 62.3357 25.473 62.2992 25.4039 62.2754C25.3298 62.2599 25.2532 62.2599 25.179 62.2754C25.0889 62.2932 25.0036 62.3301 24.9287 62.3833C24.8268 62.4474 24.7369 62.5293 24.663 62.6248C24.5849 62.7155 24.5212 62.8177 24.474 62.9278C24.4408 63.0112 24.4236 63.1001 24.4229 63.1898C24.4217 63.2665 24.4392 63.3424 24.474 63.4107C24.5096 63.4765 24.5564 63.5356 24.612 63.5854C24.6715 63.6315 24.739 63.6665 24.8111 63.688C24.8852 63.707 24.9629 63.7052 25.0361 63.683Z" fill="#306EE2"/>
<path d="M28.1012 66.4872L27.5904 66.1791L28.1012 65.3008L27.3604 64.8281L26.8189 65.6962L26.3079 65.3778L27.5342 63.4104L28.045 63.7289L27.5955 64.448L28.3362 64.9206L28.7859 64.2014L29.2967 64.5198L28.1012 66.4872Z" fill="#306EE2"/>
<path d="M31.2216 68.0593L30.6546 67.7973L30.7058 67.2836L29.9343 66.919L29.5919 67.2734L29.0504 67.0216L30.7977 65.2804L31.4159 65.5731L31.2216 68.0593ZM30.767 66.8573L30.859 65.984L30.251 66.6158L30.767 66.8573Z" fill="#306EE2"/>
<path d="M34.2624 69.1123L33.7005 68.9274L34.2675 67.1449L33.6443 66.9394L33.5574 67.1654C33.5574 67.2219 33.5115 67.2939 33.4757 67.3812C33.4109 67.5475 33.3374 67.7105 33.256 67.8692C33.1964 67.9734 33.1316 68.0746 33.0618 68.1724C33.0103 68.2412 32.9502 68.3034 32.8831 68.3573C32.8352 68.3962 32.7839 68.4305 32.7297 68.4599C32.6604 68.4908 32.5859 68.5083 32.51 68.5113C32.4288 68.516 32.3474 68.5055 32.2699 68.4805L32.1218 68.424L32.0247 68.3829L32.1832 67.8692H32.224C32.2631 67.8858 32.3044 67.8961 32.3465 67.9001C32.3753 67.905 32.4047 67.905 32.4334 67.9001C32.5433 67.8428 32.6313 67.7507 32.6838 67.6381C32.7842 67.4492 32.8712 67.2535 32.9444 67.0524C32.9801 66.9498 33.021 66.8419 33.0618 66.7185C33.1027 66.5954 33.1538 66.4618 33.2049 66.3076L34.9266 66.8675L34.2624 69.1123Z" fill="#306EE2"/>
<path d="M37.6757 69.092C37.6574 69.1993 37.6155 69.3011 37.5531 69.3899C37.4959 69.4694 37.4229 69.5358 37.3386 69.5852C37.2401 69.6379 37.1326 69.6709 37.0218 69.6827C36.8967 69.689 36.7713 69.6787 36.6488 69.6519L35.627 69.4517L36.0614 67.1709L36.6437 67.2839L36.4802 68.1315L36.9503 68.224C37.0812 68.2468 37.2097 68.283 37.3334 68.3317C37.4253 68.3738 37.5073 68.4351 37.5735 68.5116C37.639 68.5876 37.6831 68.6798 37.7012 68.7786C37.7108 68.8839 37.7021 68.9899 37.6757 69.092ZM37.0678 68.9944C37.0725 68.9569 37.0725 68.919 37.0678 68.8814C37.062 68.8453 37.0499 68.8105 37.032 68.7786C37.005 68.7421 36.9701 68.7122 36.9299 68.6914C36.8708 68.6601 36.8068 68.6393 36.7407 68.6297L36.3729 68.5579L36.2758 69.1383L36.6437 69.2102C36.7031 69.2177 36.7632 69.2177 36.8226 69.2102C36.8672 69.2044 36.9105 69.1904 36.9503 69.1692C36.9812 69.1476 37.0087 69.1215 37.032 69.092C37.0505 69.0624 37.0627 69.0291 37.0678 68.9944Z" fill="#306EE2"/>
<path d="M40.8173 70.1189L40.2247 70.083L40.2961 69.0556L39.4174 68.9939L39.351 70.0214L38.7583 69.9801L38.9116 67.6636L39.5043 67.7046L39.4481 68.5523L40.3217 68.6139L40.3779 67.7662L40.9706 67.8022L40.8173 70.1189Z" fill="#306EE2"/>
<path d="M44.3733 68.82C44.3924 68.9802 44.3797 69.1425 44.3359 69.2978C44.292 69.453 44.2179 69.5979 44.1178 69.724C43.8884 69.9484 43.5869 70.0831 43.2675 70.1037C42.9482 70.1246 42.6319 70.0299 42.3757 69.8371C42.2601 69.725 42.1677 69.591 42.1037 69.4429C42.0397 69.2948 42.0054 69.1355 42.0027 68.9741C41.9684 68.6501 42.062 68.3253 42.2633 68.0699C42.4185 67.8801 42.6281 67.7429 42.8636 67.6769C43.0992 67.611 43.3492 67.6196 43.5798 67.7015C43.8102 67.7834 44.0101 67.9347 44.152 68.1349C44.2941 68.335 44.3713 68.5742 44.3733 68.82ZM43.6274 69.4569C43.68 69.3789 43.7181 69.2918 43.7398 69.2001C43.7534 69.0875 43.7534 68.9736 43.7398 68.8611C43.7324 68.7402 43.7084 68.6208 43.6683 68.5066C43.6345 68.4232 43.5861 68.3466 43.5252 68.2806C43.4751 68.2223 43.4096 68.1796 43.3362 68.1573C43.2677 68.1317 43.1945 68.1212 43.1215 68.1264C43.0487 68.1312 42.9776 68.1505 42.9121 68.1829C42.8433 68.2157 42.7837 68.2652 42.7385 68.3268C42.682 68.4008 42.6436 68.487 42.6261 68.5786C42.6071 68.6959 42.6071 68.8156 42.6261 68.933C42.6309 69.0541 42.6551 69.1738 42.6975 69.2874C42.7276 69.3714 42.7747 69.4483 42.8355 69.5134C42.8887 69.5682 42.9531 69.6102 43.0245 69.6367C43.0946 69.6631 43.1696 69.6736 43.2442 69.6675C43.3187 69.6621 43.3914 69.6429 43.4588 69.611C43.5252 69.5721 43.5825 69.5197 43.6274 69.4569Z" fill="#306EE2"/>
<path d="M46.9729 67.6537L45.9512 67.849L46.2833 69.6879L45.6753 69.7753L45.2615 67.4946L46.8913 67.1915L46.9729 67.6537Z" fill="#306EE2"/>
<path d="M50.2272 67.4483C50.2817 67.6002 50.3057 67.7616 50.2979 67.9229C50.2899 68.0842 50.2504 68.2424 50.1813 68.3883C50.011 68.6604 49.7491 68.8621 49.4434 68.9565C49.1377 69.0507 48.8085 69.0315 48.5158 68.902C48.2389 68.7357 48.0387 68.4662 47.9588 68.1519C47.9053 67.9982 47.8836 67.8351 47.8951 67.6726C47.9065 67.5101 47.9508 67.3515 48.0253 67.2069C48.1025 67.0661 48.2076 66.9429 48.3342 66.8448C48.4608 66.7468 48.606 66.6759 48.761 66.6367C48.9113 66.5814 49.0713 66.5575 49.2311 66.5662C49.391 66.5751 49.5474 66.6164 49.6908 66.6881C49.8255 66.7731 49.9422 66.8841 50.0343 67.0146C50.1263 67.1449 50.1919 67.2924 50.2272 67.4483ZM49.6449 68.2342C49.6808 68.1463 49.6983 68.0519 49.6958 67.9568C49.6932 67.843 49.6725 67.7303 49.6346 67.6229C49.6027 67.5062 49.5528 67.3952 49.4864 67.2941C49.4354 67.2212 49.3713 67.1584 49.2974 67.1092C49.2343 67.0641 49.1601 67.0374 49.0828 67.0322C49.0118 67.0195 48.9393 67.0195 48.8683 67.0322C48.7981 67.0549 48.7324 67.0897 48.6741 67.135C48.6166 67.1858 48.5713 67.249 48.5413 67.3199C48.5038 67.4036 48.4862 67.4951 48.4902 67.587C48.4929 67.7071 48.5119 67.8264 48.5463 67.9414C48.5794 68.0561 48.6293 68.1652 48.6945 68.2649C48.7455 68.3395 48.8095 68.4039 48.8835 68.4551C48.9477 68.4955 49.0199 68.5209 49.095 68.5298C49.1701 68.5387 49.2462 68.5307 49.3178 68.5064C49.3897 68.4853 49.4559 68.4484 49.5119 68.3986C49.5698 68.3564 49.6156 68.2997 49.6449 68.2342Z" fill="#306EE2"/>
<path d="M54.811 65.2495C54.8937 65.3867 54.9486 65.5392 54.9722 65.6979C54.996 65.8566 54.988 66.0185 54.949 66.1742C54.9007 66.3282 54.8214 66.4708 54.7159 66.5928C54.6104 66.7147 54.4811 66.8136 54.336 66.883C54.1998 66.9672 54.0478 67.0221 53.8895 67.0442C53.7312 67.0664 53.5701 67.0551 53.4163 67.0115C53.2651 66.9598 53.1257 66.8781 53.0063 66.7713C52.887 66.6646 52.7901 66.5349 52.7215 66.3898C52.5535 66.1111 52.502 65.7768 52.5784 65.4601C52.6931 65.16 52.9103 64.9108 53.1913 64.7574C53.4722 64.6039 53.7984 64.5563 54.1111 64.6228C54.2634 64.6752 54.4036 64.7576 54.5238 64.8653C54.644 64.9729 54.7416 65.1035 54.811 65.2495ZM54.3973 66.1433C54.4175 66.0503 54.4175 65.9539 54.3973 65.8608C54.3719 65.7493 54.3305 65.642 54.2746 65.5424C54.2208 65.4356 54.15 65.3384 54.0652 65.2546C54.0035 65.1895 53.9286 65.1387 53.8455 65.1057C53.7745 65.0758 53.697 65.0652 53.6207 65.0748C53.5468 65.0816 53.4754 65.1044 53.4113 65.1416C53.3465 65.1763 53.2892 65.2233 53.2425 65.2803C53.1943 65.34 53.161 65.4104 53.1455 65.4859C53.1278 65.5757 53.1278 65.6682 53.1455 65.758C53.1707 65.8745 53.212 65.9869 53.2682 66.0919C53.3223 66.1984 53.393 66.2955 53.4776 66.3796C53.541 66.4449 53.6178 66.4957 53.7024 66.5286C53.7714 66.5587 53.8475 66.5694 53.9221 66.5593C53.9972 66.555 54.0705 66.534 54.1367 66.4977C54.2019 66.4594 54.2591 66.4089 54.3053 66.3488C54.3518 66.2886 54.3833 66.2182 54.3973 66.1433Z" fill="#306EE2"/>
<path d="M57.5746 63.8218C57.6369 63.9075 57.6805 64.0055 57.7024 64.1094C57.7254 64.2056 57.7254 64.3059 57.7024 64.4022C57.673 64.5118 57.6227 64.6148 57.5542 64.7052C57.4728 64.8002 57.3801 64.8846 57.2783 64.957L56.415 65.5785L55.0713 63.6933L56.5274 62.6659L56.7879 63.0307L55.8121 63.7395L56.0522 64.0734L56.4455 63.7909C56.5504 63.712 56.6634 63.6447 56.7828 63.5905C56.876 63.5492 56.9774 63.5298 57.0792 63.534C57.1781 63.5374 57.2738 63.5694 57.3551 63.6265C57.4391 63.6781 57.5135 63.7442 57.5746 63.8218ZM57.0638 64.1967C57.0441 64.166 57.0199 64.1382 56.9923 64.1145C56.9656 64.0891 56.9316 64.073 56.8952 64.0683C56.8512 64.0609 56.8063 64.0609 56.7623 64.0683C56.6978 64.0931 56.6374 64.1277 56.5836 64.171L56.277 64.3919L56.6193 64.8696L56.9258 64.6487C56.9752 64.6154 57.0185 64.5737 57.0535 64.5255C57.08 64.4877 57.1007 64.4462 57.1149 64.4022C57.1225 64.3667 57.1225 64.3298 57.1149 64.2943C57.1112 64.2601 57.1007 64.2269 57.0842 64.1967H57.0638Z" fill="#306EE2"/>
<path d="M59.291 61.1709C59.3606 61.2476 59.416 61.3363 59.4543 61.4328C59.4921 61.5238 59.5112 61.6217 59.5107 61.7204C59.5043 61.8469 59.473 61.9709 59.4187 62.0852C59.3553 62.2145 59.2666 62.3298 59.158 62.4242L58.8821 62.6759L59.3931 63.2306L58.9589 63.6364L57.4262 61.9259L58.1516 61.2581C58.2417 61.172 58.3412 61.0962 58.4479 61.0321C58.5338 60.9854 58.6272 60.954 58.7238 60.9396C58.8258 60.9112 58.9335 60.9112 59.0355 60.9396C59.1373 60.9957 59.2248 61.0748 59.291 61.1709ZM58.8465 61.5971C58.8062 61.5519 58.7524 61.5214 58.6931 61.5099C58.6433 61.494 58.5897 61.494 58.5399 61.5099C58.4815 61.5333 58.4266 61.5643 58.3764 61.6023C58.3305 61.6383 58.2743 61.6948 58.2027 61.7615L58.1261 61.8283L58.591 62.342L58.7135 62.2238C58.7768 62.1693 58.8349 62.1092 58.8873 62.0441C58.926 61.9952 58.9508 61.9365 58.9589 61.8745C58.9692 61.8271 58.9692 61.7781 58.9589 61.7307C58.9288 61.6804 58.8908 61.6354 58.8465 61.5971Z" fill="#306EE2"/>
<path d="M62.582 59.8406L62.1784 60.3081L61.7236 60.1231L61.1668 60.7755L61.417 61.2018L61.0237 61.6642L59.8333 59.5015L60.2778 58.9879L62.582 59.8406ZM61.3099 59.9536L60.4975 59.6299L60.942 60.3902L61.3099 59.9536Z" fill="#306EE2"/>
<path d="M63.6597 57.051C63.7475 57.109 63.8209 57.1863 63.8743 57.277C63.9257 57.3696 63.9522 57.4742 63.9509 57.5802C63.9499 57.7047 63.9275 57.828 63.8846 57.9448C63.8278 58.0975 63.7522 58.2424 63.6597 58.3764C63.5735 58.5063 63.476 58.6283 63.3686 58.741C63.2723 58.8386 63.168 58.928 63.0569 59.0082L62.6278 58.7154L62.6583 58.6691L62.7912 58.6024C62.8476 58.5693 62.9022 58.5334 62.9547 58.4945L63.1232 58.361C63.1773 58.3082 63.2252 58.2496 63.2663 58.1862C63.3088 58.1252 63.3447 58.0597 63.3737 57.9911C63.3981 57.9359 63.412 57.8766 63.4145 57.8164C63.4203 57.7636 63.4115 57.7103 63.389 57.6623C63.368 57.6116 63.3301 57.5698 63.2817 57.5442C63.2423 57.5142 63.197 57.4932 63.1489 57.4825C63.1086 57.4727 63.0665 57.4727 63.0262 57.4825C62.9803 57.5058 62.94 57.5391 62.9088 57.5802C62.863 57.6292 62.822 57.6825 62.7861 57.7393L62.551 58.099L62.2088 57.8678L62.4336 57.5237C62.4735 57.4682 62.5063 57.4078 62.5306 57.3438C62.549 57.3016 62.5593 57.2563 62.5613 57.2103C62.5573 57.1745 62.5468 57.1397 62.5306 57.1075C62.5064 57.0769 62.477 57.0509 62.4439 57.0305C62.4139 57.0095 62.3781 56.9983 62.3416 56.9983C62.3051 56.9983 62.2695 57.0095 62.2395 57.0305C62.1515 57.0919 62.0769 57.1706 62.0198 57.2617C61.9797 57.3252 61.9455 57.3922 61.9176 57.4619C61.8925 57.5254 61.8721 57.5907 61.8563 57.6572C61.8391 57.7124 61.827 57.7692 61.8205 57.8267C61.8205 57.8729 61.8205 57.9192 61.8205 57.9653L61.7898 58.0167L61.3862 57.7446C61.418 57.6144 61.4608 57.4873 61.5139 57.3644C61.5726 57.2141 61.648 57.0711 61.7387 56.938C61.8582 56.7224 62.0352 56.5444 62.2496 56.4243C62.3234 56.3858 62.4061 56.3684 62.4889 56.3738C62.5719 56.3793 62.6517 56.4074 62.7198 56.4552C62.8235 56.5253 62.8979 56.6313 62.9292 56.7531C62.9638 56.8808 62.9548 57.0165 62.9037 57.1384C62.946 57.095 62.9922 57.0554 63.0416 57.0203C63.0957 56.984 63.154 56.9546 63.2152 56.9329C63.283 56.9226 63.3519 56.9226 63.4196 56.9329C63.5082 56.9517 63.5906 56.9923 63.6597 57.051Z" fill="#306EE2"/>
<path d="M64.8497 53.8C64.9957 53.8658 65.1274 53.96 65.237 54.0772C65.3466 54.1945 65.4321 54.3325 65.4883 54.4832C65.5359 54.6329 65.5523 54.7909 65.5364 54.9474C65.5206 55.1038 65.4729 55.2553 65.3963 55.3923C65.3332 55.5407 65.2402 55.6742 65.1233 55.7847C65.0063 55.8952 64.868 55.9803 64.7168 56.0344C64.4058 56.1199 64.0738 56.0794 63.7921 55.9214C63.6461 55.8556 63.5144 55.7614 63.4048 55.6442C63.2952 55.5268 63.2097 55.3889 63.1535 55.2382C63.1046 55.0847 63.0883 54.9227 63.1059 54.7623C63.1235 54.6022 63.1745 54.4475 63.2556 54.3085C63.3189 54.1608 63.4119 54.0279 63.5289 53.9182C63.6459 53.8086 63.7842 53.7246 63.9352 53.6715C64.0885 53.6315 64.2483 53.6222 64.4051 53.6442C64.5621 53.6663 64.7132 53.7192 64.8497 53.8ZM65.0183 54.7759C64.9798 54.6901 64.924 54.6132 64.8548 54.5499C64.7708 54.4733 64.6761 54.4092 64.5738 54.3599C64.4686 54.3024 64.3546 54.2625 64.2365 54.2418C64.1489 54.2234 64.0585 54.2234 63.9709 54.2418C63.896 54.26 63.8261 54.2951 63.7666 54.3444C63.711 54.3929 63.6658 54.4523 63.6338 54.519C63.6019 54.5875 63.5852 54.6619 63.5852 54.7374C63.5852 54.8129 63.6019 54.8874 63.6338 54.9557C63.672 55.0389 63.7259 55.1137 63.7921 55.1766C63.8806 55.259 63.9803 55.3283 64.0884 55.3821C64.1925 55.4373 64.3046 55.4754 64.4205 55.4951C64.5081 55.5133 64.5986 55.5133 64.6862 55.4951C64.7611 55.4767 64.8311 55.4416 64.8906 55.3923C64.9469 55.3445 64.9921 55.2848 65.0234 55.2177C65.0584 55.1508 65.0794 55.0773 65.0847 55.0019C65.0803 54.9224 65.0576 54.8451 65.0183 54.7759Z" fill="#306EE2"/>
<path d="M66.3473 51.0414C66.4444 51.0744 66.5321 51.1308 66.6026 51.2058C66.6708 51.2749 66.7216 51.3594 66.7507 51.4523C66.7828 51.5605 66.7949 51.6736 66.7865 51.7862C66.771 51.9267 66.7384 52.0647 66.6895 52.1971L66.3574 53.1526L64.1809 52.3769L64.4825 51.5293C64.524 51.399 64.5753 51.272 64.6357 51.1493C64.6762 51.069 64.7297 50.9961 64.794 50.9335C64.8576 50.8678 64.9395 50.8229 65.029 50.805C65.1183 50.7899 65.2101 50.7988 65.2948 50.8308C65.3927 50.8643 65.4783 50.9271 65.54 51.0106C65.6018 51.1002 65.6388 51.2049 65.6473 51.3137C65.7119 51.19 65.8165 51.0923 65.9436 51.0363C66.0076 51.0095 66.0766 50.9962 66.1459 50.9971C66.2153 50.998 66.2838 51.013 66.3473 51.0414ZM65.1976 51.4472C65.1592 51.4364 65.1185 51.4364 65.0802 51.4472C65.0354 51.4539 64.9951 51.4779 64.9678 51.514C64.9332 51.5564 64.9071 51.6053 64.8912 51.6578C64.8655 51.7195 64.835 51.8067 64.794 51.9146V51.966L65.2538 52.1304L65.2845 52.043C65.3152 51.9574 65.3407 51.8804 65.3611 51.812C65.37 51.7608 65.37 51.7089 65.3611 51.6578C65.3611 51.6085 65.3429 51.5609 65.31 51.5242C65.2784 51.4909 65.2402 51.4645 65.1976 51.4472ZM66.1326 51.627C66.0758 51.6107 66.0157 51.6107 65.959 51.627C65.9045 51.6483 65.8582 51.6859 65.826 51.7348C65.79 51.7892 65.7608 51.8479 65.7393 51.9095C65.7393 51.9865 65.6831 52.0687 65.6574 52.1509L65.6115 52.2743L66.153 52.4694V52.4283C66.2092 52.269 66.245 52.156 66.2705 52.0841C66.2837 52.018 66.2837 51.95 66.2705 51.8839C66.2727 51.828 66.2544 51.7732 66.2195 51.7297C66.1984 51.6895 66.1687 51.6544 66.1326 51.627Z" fill="#306EE2"/>
<path d="M67.8084 47.9801L67.6756 48.5811L67.1648 48.6375L66.9809 49.4801L67.3997 49.7369L67.2669 50.3276L65.2234 48.9869L65.3716 48.314L67.8084 47.9801ZM66.7408 48.7146L65.8722 48.8123L66.6181 49.2694L66.7408 48.7146Z" fill="#306EE2"/>
<path d="M68.1604 44.7795L68.1042 45.3753L67.0823 45.2829L67.0159 46.1459L68.0377 46.2384L67.9508 46.8548L65.6773 46.6595L65.7335 46.0636L66.5715 46.1407L66.6531 45.2623L65.8153 45.1802L65.8664 44.5844L68.1604 44.7795Z" fill="#306EE2"/>
<path d="M68.115 41.261V41.8416L66.5823 41.9031L68.1508 42.8073V43.3773L65.8518 43.4698V42.8843L67.2414 42.8278L65.816 41.9905L65.7905 41.3535L68.115 41.261Z" fill="#306EE2"/>
<path d="M67.6346 37.9272L67.7367 38.5128L66.904 38.6566L66.9602 38.9803L67.8901 39.4118L68.0076 40.1103L66.95 39.5967C66.9189 39.735 66.852 39.8627 66.7558 39.9666C66.645 40.0718 66.5035 40.1384 66.3522 40.1566C66.2489 40.188 66.1387 40.188 66.0354 40.1566C65.9422 40.124 65.8582 40.0694 65.7902 39.9973C65.7258 39.9291 65.6755 39.8489 65.6421 39.7611C65.5975 39.6523 65.5665 39.5385 65.5501 39.422L65.3662 38.3536L67.6346 37.9272ZM66.4953 38.7286L65.8822 38.8314L65.9333 39.124C65.9435 39.1937 65.959 39.2624 65.9792 39.3295C65.9927 39.3799 66.0212 39.4247 66.0611 39.4579C66.0926 39.489 66.1312 39.5118 66.1735 39.5248C66.2205 39.5351 66.2693 39.5351 66.3164 39.5248C66.3642 39.5185 66.4097 39.5009 66.4494 39.4734C66.4847 39.4473 66.5144 39.4141 66.5361 39.3758C66.5617 39.3307 66.5725 39.2785 66.5668 39.2269C66.5704 39.1567 66.5704 39.0863 66.5668 39.0163L66.4953 38.7286Z" fill="#306EE2"/>
<path d="M41.1244 38.0609C39.6531 35.5233 30.9779 36.0677 28.6583 36.263C28.5031 36.2797 28.3597 36.3544 28.2566 36.4724C28.1533 36.5903 28.098 36.7429 28.1015 36.8999V48.7144C28.1012 48.8012 28.1189 48.8871 28.1533 48.9668C28.1878 49.0463 28.2383 49.1179 28.3018 49.1768C28.3652 49.2357 28.4401 49.2807 28.5216 49.309C28.6033 49.3374 28.6899 49.3483 28.7759 49.3412C31.2384 49.1408 39.6887 48.6477 41.1397 51.1492C41.1613 51.1867 41.1923 51.2175 41.2294 51.2391C41.2666 51.2606 41.3089 51.272 41.3517 51.272C41.3946 51.272 41.4369 51.2606 41.474 51.2391C41.5112 51.2175 41.5422 51.1867 41.5638 51.1492C43.0147 48.6477 51.4651 49.1408 53.9276 49.3412C54.0124 49.3461 54.0973 49.3334 54.1771 49.3042C54.2569 49.2749 54.3299 49.2295 54.3916 49.1708C54.4533 49.1121 54.5025 49.0413 54.536 48.9629C54.5696 48.8844 54.5868 48.7999 54.5867 48.7144V36.8999C54.5871 36.7422 54.5286 36.5902 54.4224 36.474C54.3164 36.3579 54.1707 36.2861 54.0145 36.2732C51.6949 36.0781 43.0199 35.5336 41.5484 38.0711C41.526 38.1079 41.4943 38.1382 41.4566 38.1587C41.4188 38.1794 41.3764 38.1897 41.3335 38.1887C41.2905 38.1877 41.2486 38.1753 41.212 38.1529C41.1752 38.1305 41.1451 38.0987 41.1244 38.0609Z" fill="#E9E8E8"/>
<path d="M53.9935 50.3063C51.153 50.0907 42.9938 49.7054 41.5531 52.1916C41.5302 52.2287 41.4982 52.2594 41.4602 52.2807C41.4221 52.3019 41.3794 52.313 41.336 52.313C41.2925 52.313 41.2497 52.3019 41.2117 52.2807C41.1736 52.2594 41.1418 52.2287 41.1189 52.1916C39.6781 49.7054 31.519 50.0907 28.6783 50.3063C28.5539 50.3155 28.4289 50.2989 28.311 50.2574C28.1933 50.2159 28.0854 50.1504 27.9937 50.0652C27.9022 49.9798 27.8292 49.8765 27.7791 49.7616C27.729 49.6467 27.7029 49.5226 27.7025 49.3971V50.8611C27.7019 50.9921 27.7287 51.1217 27.781 51.2416C27.8334 51.3616 27.9102 51.469 28.0065 51.5571C28.1029 51.6452 28.2166 51.7121 28.3402 51.7533C28.4638 51.7943 28.5948 51.8089 28.7244 51.7961C31.5855 51.5803 39.7036 51.2001 41.1393 53.6812C41.1622 53.7183 41.1942 53.7491 41.2321 53.7703C41.2701 53.7916 41.3129 53.8028 41.3564 53.8028C41.3998 53.8028 41.4427 53.7916 41.4807 53.7703C41.5186 53.7491 41.5506 53.7183 41.5735 53.6812C43.0092 51.2001 51.1273 51.5803 53.9884 51.7961C54.118 51.8089 54.2489 51.7943 54.3726 51.7533C54.4962 51.7121 54.6099 51.6452 54.7062 51.5571C54.8026 51.469 54.8794 51.3616 54.9318 51.2416C54.9841 51.1217 55.0109 50.9921 55.0102 50.8611V49.3971C55.0104 49.5264 54.9834 49.6542 54.9308 49.7722C54.8782 49.8903 54.8013 49.9957 54.7051 50.0816C54.6091 50.1675 54.496 50.232 54.3733 50.2708C54.2507 50.3095 54.1212 50.3216 53.9935 50.3063Z" fill="#306EE2"/>
<path d="M43.3158 49.6441C42.6503 49.7673 41.9945 49.939 41.3538 50.1577C40.7131 49.939 40.0574 49.7673 39.3919 49.6441C39.5501 49.2418 39.8183 48.8927 40.1655 48.6373C40.5126 48.3819 40.9246 48.2305 41.3538 48.2006C42.0333 48.1596 42.7587 48.555 43.3158 49.6441Z" fill="#306EE2"/>
<path d="M41.3536 38.9544C41.9309 36.4529 49.6763 33.3348 52.8337 33.5454V43.259C52.8337 43.259 43.7957 44.3942 41.3536 47.2298V38.9544Z" fill="#306EE2"/>
<path d="M41.3535 38.9544C40.7813 36.4529 33.0308 33.3348 29.8736 33.5454V43.259C29.8736 43.259 38.9165 44.3942 41.3535 47.2298V38.9544Z" fill="#306EE2"/>
</svg>
