<svg width="48" height="49" viewBox="0 0 48 49" fill="none" xmlns="http://www.w3.org/2000/svg">
<circle cx="24" cy="24.3301" r="23.5" transform="rotate(180 24 24.3301)" stroke="#5A5EA7"/>
<g clip-path="url(#clip0_316_8)">
<path d="M20.4877 33.7603L28.6695 25.5783C28.8229 25.4249 28.9091 25.2168 28.9091 24.9998C28.9091 24.7828 28.8229 24.5747 28.6694 24.4212L20.4876 16.2396C20.1681 15.9201 19.6501 15.9201 19.3306 16.2396C19.0111 16.5591 19.011 17.0772 19.3306 17.3967L26.9338 24.9998L19.3306 32.6033C19.1708 32.763 19.0909 32.9724 19.0909 33.1818C19.0909 33.3912 19.1708 33.6006 19.3306 33.7604C19.6501 34.0799 20.1682 34.0799 20.4877 33.7603Z" fill="#5A5EA7"/>
</g>
<defs>
<clipPath id="clip0_316_8">
<rect width="18" height="18" fill="white" transform="translate(33 16) rotate(90)"/>
</clipPath>
</defs>
</svg>
